<?xml version="1.0" encoding="utf-8" standalone="no"?>
<!DOCTYPE svg PUBLIC "-//W3C//DTD SVG 1.1//EN"
  "http://www.w3.org/Graphics/SVG/1.1/DTD/svg11.dtd">
<svg xmlns:xlink="http://www.w3.org/1999/xlink" width="993.69pt" height="314.138531pt" viewBox="0 0 993.69 314.138531" xmlns="http://www.w3.org/2000/svg" version="1.1">
 <metadata>
  <rdf:RDF xmlns:dc="http://purl.org/dc/elements/1.1/" xmlns:cc="http://creativecommons.org/ns#" xmlns:rdf="http://www.w3.org/1999/02/22-rdf-syntax-ns#">
   <cc:Work>
    <dc:type rdf:resource="http://purl.org/dc/dcmitype/StillImage"/>
    <dc:date>2026-05-19T12:33:34.739709</dc:date>
    <dc:format>image/svg+xml</dc:format>
    <dc:creator>
     <cc:Agent>
      <dc:title>Matplotlib v3.10.7, https://matplotlib.org/</dc:title>
     </cc:Agent>
    </dc:creator>
   </cc:Work>
  </rdf:RDF>
 </metadata>
 <defs>
  <style type="text/css">*{stroke-linejoin: round; stroke-linecap: butt}</style>
 </defs>
 <g id="figure_1">
  <g id="patch_1">
   <path d="M 0 314.138531 
L 993.69 314.138531 
L 993.69 0 
L 0 0 
z
" style="fill: #ffffff"/>
  </g>
  <g id="axes_1">
   <g id="patch_2">
    <path d="M 484.29 276.582281 
L 986.49 276.582281 
L 986.49 21.558281 
L 484.29 21.558281 
z
" style="fill: #ffffff"/>
   </g>
   <g id="patch_3">
    <path d="M 715.208687 147.370121 
L 735.39 139.889417 
L 755.571313 147.370121 
L 735.39 154.850825 
z
" clip-path="url(#p9aefe49a04)" style="fill: #2563eb; stroke: #111827; stroke-width: 0.8; stroke-linejoin: miter"/>
   </g>
   <g id="patch_4">
    <path d="M 662.276095 181.373321 
L 735.39 173.892617 
L 808.503905 181.373321 
L 735.39 188.854025 
z
" clip-path="url(#p9aefe49a04)" style="fill: #0d9488; stroke: #111827; stroke-width: 0.8; stroke-linejoin: miter"/>
   </g>
   <g id="patch_5">
    <path d="M 670.246703 215.376521 
L 740.883658 207.895817 
L 832.789617 215.376521 
L 740.883658 222.857225 
z
" clip-path="url(#p9aefe49a04)" style="fill: #9333ea; stroke: #111827; stroke-width: 0.8; stroke-linejoin: miter"/>
   </g>
   <g id="matplotlib.axis_1">
    <g id="xtick_1">
     <g id="line2d_1">
      <defs>
       <path id="m39d83ce56b" d="M 0 0 
L 0 3.5 
" style="stroke: #000000; stroke-width: 0.8"/>
      </defs>
      <g>
       <use xlink:href="#m39d83ce56b" x="541.976833" y="276.582281" style="stroke: #000000; stroke-width: 0.8"/>
      </g>
     </g>
     <g id="text_1">
      <!-- −1.0 -->
      <g transform="translate(529.835427 291.180719) scale(0.1 -0.1)">
       <defs>
        <path id="DejaVuSans-2212" d="M 678 2272 
L 4684 2272 
L 4684 1741 
L 678 1741 
L 678 2272 
z
" transform="scale(0.015625)"/>
        <path id="DejaVuSans-31" d="M 794 531 
L 1825 531 
L 1825 4091 
L 703 3866 
L 703 4441 
L 1819 4666 
L 2450 4666 
L 2450 531 
L 3481 531 
L 3481 0 
L 794 0 
L 794 531 
z
" transform="scale(0.015625)"/>
        <path id="DejaVuSans-2e" d="M 684 794 
L 1344 794 
L 1344 0 
L 684 0 
L 684 794 
z
" transform="scale(0.015625)"/>
        <path id="DejaVuSans-30" d="M 2034 4250 
Q 1547 4250 1301 3770 
Q 1056 3291 1056 2328 
Q 1056 1369 1301 889 
Q 1547 409 2034 409 
Q 2525 409 2770 889 
Q 3016 1369 3016 2328 
Q 3016 3291 2770 3770 
Q 2525 4250 2034 4250 
z
M 2034 4750 
Q 2819 4750 3233 4129 
Q 3647 3509 3647 2328 
Q 3647 1150 3233 529 
Q 2819 -91 2034 -91 
Q 1250 -91 836 529 
Q 422 1150 422 2328 
Q 422 3509 836 4129 
Q 1250 4750 2034 4750 
z
" transform="scale(0.015625)"/>
       </defs>
       <use xlink:href="#DejaVuSans-2212"/>
       <use xlink:href="#DejaVuSans-31" transform="translate(83.789062 0)"/>
       <use xlink:href="#DejaVuSans-2e" transform="translate(147.412109 0)"/>
       <use xlink:href="#DejaVuSans-30" transform="translate(179.199219 0)"/>
      </g>
     </g>
    </g>
    <g id="xtick_2">
     <g id="line2d_2">
      <g>
       <use xlink:href="#m39d83ce56b" x="639.557004" y="276.582281" style="stroke: #000000; stroke-width: 0.8"/>
      </g>
     </g>
     <g id="text_2">
      <!-- −0.5 -->
      <g transform="translate(627.415597 291.180719) scale(0.1 -0.1)">
       <defs>
        <path id="DejaVuSans-35" d="M 691 4666 
L 3169 4666 
L 3169 4134 
L 1269 4134 
L 1269 2991 
Q 1406 3038 1543 3061 
Q 1681 3084 1819 3084 
Q 2600 3084 3056 2656 
Q 3513 2228 3513 1497 
Q 3513 744 3044 326 
Q 2575 -91 1722 -91 
Q 1428 -91 1123 -41 
Q 819 9 494 109 
L 494 744 
Q 775 591 1075 516 
Q 1375 441 1709 441 
Q 2250 441 2565 725 
Q 2881 1009 2881 1497 
Q 2881 1984 2565 2268 
Q 2250 2553 1709 2553 
Q 1456 2553 1204 2497 
Q 953 2441 691 2322 
L 691 4666 
z
" transform="scale(0.015625)"/>
       </defs>
       <use xlink:href="#DejaVuSans-2212"/>
       <use xlink:href="#DejaVuSans-30" transform="translate(83.789062 0)"/>
       <use xlink:href="#DejaVuSans-2e" transform="translate(147.412109 0)"/>
       <use xlink:href="#DejaVuSans-35" transform="translate(179.199219 0)"/>
      </g>
     </g>
    </g>
    <g id="xtick_3">
     <g id="line2d_3">
      <g>
       <use xlink:href="#m39d83ce56b" x="737.137174" y="276.582281" style="stroke: #000000; stroke-width: 0.8"/>
      </g>
     </g>
     <g id="text_3">
      <!-- 0.0 -->
      <g transform="translate(729.185612 291.180719) scale(0.1 -0.1)">
       <use xlink:href="#DejaVuSans-30"/>
       <use xlink:href="#DejaVuSans-2e" transform="translate(63.623047 0)"/>
       <use xlink:href="#DejaVuSans-30" transform="translate(95.410156 0)"/>
      </g>
     </g>
    </g>
    <g id="xtick_4">
     <g id="line2d_4">
      <g>
       <use xlink:href="#m39d83ce56b" x="834.717345" y="276.582281" style="stroke: #000000; stroke-width: 0.8"/>
      </g>
     </g>
     <g id="text_4">
      <!-- 0.5 -->
      <g transform="translate(826.765782 291.180719) scale(0.1 -0.1)">
       <use xlink:href="#DejaVuSans-30"/>
       <use xlink:href="#DejaVuSans-2e" transform="translate(63.623047 0)"/>
       <use xlink:href="#DejaVuSans-35" transform="translate(95.410156 0)"/>
      </g>
     </g>
    </g>
    <g id="xtick_5">
     <g id="line2d_5">
      <g>
       <use xlink:href="#m39d83ce56b" x="932.297515" y="276.582281" style="stroke: #000000; stroke-width: 0.8"/>
      </g>
     </g>
     <g id="text_5">
      <!-- 1.0 -->
      <g transform="translate(924.345953 291.180719) scale(0.1 -0.1)">
       <use xlink:href="#DejaVuSans-31"/>
       <use xlink:href="#DejaVuSans-2e" transform="translate(63.623047 0)"/>
       <use xlink:href="#DejaVuSans-30" transform="translate(95.410156 0)"/>
      </g>
     </g>
    </g>
    <g id="text_6">
     <!-- DunedinPACE mean difference (intervention − control) -->
     <g transform="translate(598.562656 304.858844) scale(0.1 -0.1)">
      <defs>
       <path id="DejaVuSans-44" d="M 1259 4147 
L 1259 519 
L 2022 519 
Q 2988 519 3436 956 
Q 3884 1394 3884 2338 
Q 3884 3275 3436 3711 
Q 2988 4147 2022 4147 
L 1259 4147 
z
M 628 4666 
L 1925 4666 
Q 3281 4666 3915 4102 
Q 4550 3538 4550 2338 
Q 4550 1131 3912 565 
Q 3275 0 1925 0 
L 628 0 
L 628 4666 
z
" transform="scale(0.015625)"/>
       <path id="DejaVuSans-75" d="M 544 1381 
L 544 3500 
L 1119 3500 
L 1119 1403 
Q 1119 906 1312 657 
Q 1506 409 1894 409 
Q 2359 409 2629 706 
Q 2900 1003 2900 1516 
L 2900 3500 
L 3475 3500 
L 3475 0 
L 2900 0 
L 2900 538 
Q 2691 219 2414 64 
Q 2138 -91 1772 -91 
Q 1169 -91 856 284 
Q 544 659 544 1381 
z
M 1991 3584 
L 1991 3584 
z
" transform="scale(0.015625)"/>
       <path id="DejaVuSans-6e" d="M 3513 2113 
L 3513 0 
L 2938 0 
L 2938 2094 
Q 2938 2591 2744 2837 
Q 2550 3084 2163 3084 
Q 1697 3084 1428 2787 
Q 1159 2491 1159 1978 
L 1159 0 
L 581 0 
L 581 3500 
L 1159 3500 
L 1159 2956 
Q 1366 3272 1645 3428 
Q 1925 3584 2291 3584 
Q 2894 3584 3203 3211 
Q 3513 2838 3513 2113 
z
" transform="scale(0.015625)"/>
       <path id="DejaVuSans-65" d="M 3597 1894 
L 3597 1613 
L 953 1613 
Q 991 1019 1311 708 
Q 1631 397 2203 397 
Q 2534 397 2845 478 
Q 3156 559 3463 722 
L 3463 178 
Q 3153 47 2828 -22 
Q 2503 -91 2169 -91 
Q 1331 -91 842 396 
Q 353 884 353 1716 
Q 353 2575 817 3079 
Q 1281 3584 2069 3584 
Q 2775 3584 3186 3129 
Q 3597 2675 3597 1894 
z
M 3022 2063 
Q 3016 2534 2758 2815 
Q 2500 3097 2075 3097 
Q 1594 3097 1305 2825 
Q 1016 2553 972 2059 
L 3022 2063 
z
" transform="scale(0.015625)"/>
       <path id="DejaVuSans-64" d="M 2906 2969 
L 2906 4863 
L 3481 4863 
L 3481 0 
L 2906 0 
L 2906 525 
Q 2725 213 2448 61 
Q 2172 -91 1784 -91 
Q 1150 -91 751 415 
Q 353 922 353 1747 
Q 353 2572 751 3078 
Q 1150 3584 1784 3584 
Q 2172 3584 2448 3432 
Q 2725 3281 2906 2969 
z
M 947 1747 
Q 947 1113 1208 752 
Q 1469 391 1925 391 
Q 2381 391 2643 752 
Q 2906 1113 2906 1747 
Q 2906 2381 2643 2742 
Q 2381 3103 1925 3103 
Q 1469 3103 1208 2742 
Q 947 2381 947 1747 
z
" transform="scale(0.015625)"/>
       <path id="DejaVuSans-69" d="M 603 3500 
L 1178 3500 
L 1178 0 
L 603 0 
L 603 3500 
z
M 603 4863 
L 1178 4863 
L 1178 4134 
L 603 4134 
L 603 4863 
z
" transform="scale(0.015625)"/>
       <path id="DejaVuSans-50" d="M 1259 4147 
L 1259 2394 
L 2053 2394 
Q 2494 2394 2734 2622 
Q 2975 2850 2975 3272 
Q 2975 3691 2734 3919 
Q 2494 4147 2053 4147 
L 1259 4147 
z
M 628 4666 
L 2053 4666 
Q 2838 4666 3239 4311 
Q 3641 3956 3641 3272 
Q 3641 2581 3239 2228 
Q 2838 1875 2053 1875 
L 1259 1875 
L 1259 0 
L 628 0 
L 628 4666 
z
" transform="scale(0.015625)"/>
       <path id="DejaVuSans-41" d="M 2188 4044 
L 1331 1722 
L 3047 1722 
L 2188 4044 
z
M 1831 4666 
L 2547 4666 
L 4325 0 
L 3669 0 
L 3244 1197 
L 1141 1197 
L 716 0 
L 50 0 
L 1831 4666 
z
" transform="scale(0.015625)"/>
       <path id="DejaVuSans-43" d="M 4122 4306 
L 4122 3641 
Q 3803 3938 3442 4084 
Q 3081 4231 2675 4231 
Q 1875 4231 1450 3742 
Q 1025 3253 1025 2328 
Q 1025 1406 1450 917 
Q 1875 428 2675 428 
Q 3081 428 3442 575 
Q 3803 722 4122 1019 
L 4122 359 
Q 3791 134 3420 21 
Q 3050 -91 2638 -91 
Q 1578 -91 968 557 
Q 359 1206 359 2328 
Q 359 3453 968 4101 
Q 1578 4750 2638 4750 
Q 3056 4750 3426 4639 
Q 3797 4528 4122 4306 
z
" transform="scale(0.015625)"/>
       <path id="DejaVuSans-45" d="M 628 4666 
L 3578 4666 
L 3578 4134 
L 1259 4134 
L 1259 2753 
L 3481 2753 
L 3481 2222 
L 1259 2222 
L 1259 531 
L 3634 531 
L 3634 0 
L 628 0 
L 628 4666 
z
" transform="scale(0.015625)"/>
       <path id="DejaVuSans-20" transform="scale(0.015625)"/>
       <path id="DejaVuSans-6d" d="M 3328 2828 
Q 3544 3216 3844 3400 
Q 4144 3584 4550 3584 
Q 5097 3584 5394 3201 
Q 5691 2819 5691 2113 
L 5691 0 
L 5113 0 
L 5113 2094 
Q 5113 2597 4934 2840 
Q 4756 3084 4391 3084 
Q 3944 3084 3684 2787 
Q 3425 2491 3425 1978 
L 3425 0 
L 2847 0 
L 2847 2094 
Q 2847 2600 2669 2842 
Q 2491 3084 2119 3084 
Q 1678 3084 1418 2786 
Q 1159 2488 1159 1978 
L 1159 0 
L 581 0 
L 581 3500 
L 1159 3500 
L 1159 2956 
Q 1356 3278 1631 3431 
Q 1906 3584 2284 3584 
Q 2666 3584 2933 3390 
Q 3200 3197 3328 2828 
z
" transform="scale(0.015625)"/>
       <path id="DejaVuSans-61" d="M 2194 1759 
Q 1497 1759 1228 1600 
Q 959 1441 959 1056 
Q 959 750 1161 570 
Q 1363 391 1709 391 
Q 2188 391 2477 730 
Q 2766 1069 2766 1631 
L 2766 1759 
L 2194 1759 
z
M 3341 1997 
L 3341 0 
L 2766 0 
L 2766 531 
Q 2569 213 2275 61 
Q 1981 -91 1556 -91 
Q 1019 -91 701 211 
Q 384 513 384 1019 
Q 384 1609 779 1909 
Q 1175 2209 1959 2209 
L 2766 2209 
L 2766 2266 
Q 2766 2663 2505 2880 
Q 2244 3097 1772 3097 
Q 1472 3097 1187 3025 
Q 903 2953 641 2809 
L 641 3341 
Q 956 3463 1253 3523 
Q 1550 3584 1831 3584 
Q 2591 3584 2966 3190 
Q 3341 2797 3341 1997 
z
" transform="scale(0.015625)"/>
       <path id="DejaVuSans-66" d="M 2375 4863 
L 2375 4384 
L 1825 4384 
Q 1516 4384 1395 4259 
Q 1275 4134 1275 3809 
L 1275 3500 
L 2222 3500 
L 2222 3053 
L 1275 3053 
L 1275 0 
L 697 0 
L 697 3053 
L 147 3053 
L 147 3500 
L 697 3500 
L 697 3744 
Q 697 4328 969 4595 
Q 1241 4863 1831 4863 
L 2375 4863 
z
" transform="scale(0.015625)"/>
       <path id="DejaVuSans-72" d="M 2631 2963 
Q 2534 3019 2420 3045 
Q 2306 3072 2169 3072 
Q 1681 3072 1420 2755 
Q 1159 2438 1159 1844 
L 1159 0 
L 581 0 
L 581 3500 
L 1159 3500 
L 1159 2956 
Q 1341 3275 1631 3429 
Q 1922 3584 2338 3584 
Q 2397 3584 2469 3576 
Q 2541 3569 2628 3553 
L 2631 2963 
z
" transform="scale(0.015625)"/>
       <path id="DejaVuSans-63" d="M 3122 3366 
L 3122 2828 
Q 2878 2963 2633 3030 
Q 2388 3097 2138 3097 
Q 1578 3097 1268 2742 
Q 959 2388 959 1747 
Q 959 1106 1268 751 
Q 1578 397 2138 397 
Q 2388 397 2633 464 
Q 2878 531 3122 666 
L 3122 134 
Q 2881 22 2623 -34 
Q 2366 -91 2075 -91 
Q 1284 -91 818 406 
Q 353 903 353 1747 
Q 353 2603 823 3093 
Q 1294 3584 2113 3584 
Q 2378 3584 2631 3529 
Q 2884 3475 3122 3366 
z
" transform="scale(0.015625)"/>
       <path id="DejaVuSans-28" d="M 1984 4856 
Q 1566 4138 1362 3434 
Q 1159 2731 1159 2009 
Q 1159 1288 1364 580 
Q 1569 -128 1984 -844 
L 1484 -844 
Q 1016 -109 783 600 
Q 550 1309 550 2009 
Q 550 2706 781 3412 
Q 1013 4119 1484 4856 
L 1984 4856 
z
" transform="scale(0.015625)"/>
       <path id="DejaVuSans-74" d="M 1172 4494 
L 1172 3500 
L 2356 3500 
L 2356 3053 
L 1172 3053 
L 1172 1153 
Q 1172 725 1289 603 
Q 1406 481 1766 481 
L 2356 481 
L 2356 0 
L 1766 0 
Q 1100 0 847 248 
Q 594 497 594 1153 
L 594 3053 
L 172 3053 
L 172 3500 
L 594 3500 
L 594 4494 
L 1172 4494 
z
" transform="scale(0.015625)"/>
       <path id="DejaVuSans-76" d="M 191 3500 
L 800 3500 
L 1894 563 
L 2988 3500 
L 3597 3500 
L 2284 0 
L 1503 0 
L 191 3500 
z
" transform="scale(0.015625)"/>
       <path id="DejaVuSans-6f" d="M 1959 3097 
Q 1497 3097 1228 2736 
Q 959 2375 959 1747 
Q 959 1119 1226 758 
Q 1494 397 1959 397 
Q 2419 397 2687 759 
Q 2956 1122 2956 1747 
Q 2956 2369 2687 2733 
Q 2419 3097 1959 3097 
z
M 1959 3584 
Q 2709 3584 3137 3096 
Q 3566 2609 3566 1747 
Q 3566 888 3137 398 
Q 2709 -91 1959 -91 
Q 1206 -91 779 398 
Q 353 888 353 1747 
Q 353 2609 779 3096 
Q 1206 3584 1959 3584 
z
" transform="scale(0.015625)"/>
       <path id="DejaVuSans-6c" d="M 603 4863 
L 1178 4863 
L 1178 0 
L 603 0 
L 603 4863 
z
" transform="scale(0.015625)"/>
       <path id="DejaVuSans-29" d="M 513 4856 
L 1013 4856 
Q 1481 4119 1714 3412 
Q 1947 2706 1947 2009 
Q 1947 1309 1714 600 
Q 1481 -109 1013 -844 
L 513 -844 
Q 928 -128 1133 580 
Q 1338 1288 1338 2009 
Q 1338 2731 1133 3434 
Q 928 4138 513 4856 
z
" transform="scale(0.015625)"/>
      </defs>
      <use xlink:href="#DejaVuSans-44"/>
      <use xlink:href="#DejaVuSans-75" transform="translate(77.001953 0)"/>
      <use xlink:href="#DejaVuSans-6e" transform="translate(140.380859 0)"/>
      <use xlink:href="#DejaVuSans-65" transform="translate(203.759766 0)"/>
      <use xlink:href="#DejaVuSans-64" transform="translate(265.283203 0)"/>
      <use xlink:href="#DejaVuSans-69" transform="translate(328.759766 0)"/>
      <use xlink:href="#DejaVuSans-6e" transform="translate(356.542969 0)"/>
      <use xlink:href="#DejaVuSans-50" transform="translate(419.921875 0)"/>
      <use xlink:href="#DejaVuSans-41" transform="translate(473.849609 0)"/>
      <use xlink:href="#DejaVuSans-43" transform="translate(540.507812 0)"/>
      <use xlink:href="#DejaVuSans-45" transform="translate(610.332031 0)"/>
      <use xlink:href="#DejaVuSans-20" transform="translate(673.515625 0)"/>
      <use xlink:href="#DejaVuSans-6d" transform="translate(705.302734 0)"/>
      <use xlink:href="#DejaVuSans-65" transform="translate(802.714844 0)"/>
      <use xlink:href="#DejaVuSans-61" transform="translate(864.238281 0)"/>
      <use xlink:href="#DejaVuSans-6e" transform="translate(925.517578 0)"/>
      <use xlink:href="#DejaVuSans-20" transform="translate(988.896484 0)"/>
      <use xlink:href="#DejaVuSans-64" transform="translate(1020.683594 0)"/>
      <use xlink:href="#DejaVuSans-69" transform="translate(1084.160156 0)"/>
      <use xlink:href="#DejaVuSans-66" transform="translate(1111.943359 0)"/>
      <use xlink:href="#DejaVuSans-66" transform="translate(1147.148438 0)"/>
      <use xlink:href="#DejaVuSans-65" transform="translate(1182.353516 0)"/>
      <use xlink:href="#DejaVuSans-72" transform="translate(1243.876953 0)"/>
      <use xlink:href="#DejaVuSans-65" transform="translate(1282.740234 0)"/>
      <use xlink:href="#DejaVuSans-6e" transform="translate(1344.263672 0)"/>
      <use xlink:href="#DejaVuSans-63" transform="translate(1407.642578 0)"/>
      <use xlink:href="#DejaVuSans-65" transform="translate(1462.623047 0)"/>
      <use xlink:href="#DejaVuSans-20" transform="translate(1524.146484 0)"/>
      <use xlink:href="#DejaVuSans-28" transform="translate(1555.933594 0)"/>
      <use xlink:href="#DejaVuSans-69" transform="translate(1594.947266 0)"/>
      <use xlink:href="#DejaVuSans-6e" transform="translate(1622.730469 0)"/>
      <use xlink:href="#DejaVuSans-74" transform="translate(1686.109375 0)"/>
      <use xlink:href="#DejaVuSans-65" transform="translate(1725.318359 0)"/>
      <use xlink:href="#DejaVuSans-72" transform="translate(1786.841797 0)"/>
      <use xlink:href="#DejaVuSans-76" transform="translate(1827.955078 0)"/>
      <use xlink:href="#DejaVuSans-65" transform="translate(1887.134766 0)"/>
      <use xlink:href="#DejaVuSans-6e" transform="translate(1948.658203 0)"/>
      <use xlink:href="#DejaVuSans-74" transform="translate(2012.037109 0)"/>
      <use xlink:href="#DejaVuSans-69" transform="translate(2051.246094 0)"/>
      <use xlink:href="#DejaVuSans-6f" transform="translate(2079.029297 0)"/>
      <use xlink:href="#DejaVuSans-6e" transform="translate(2140.210938 0)"/>
      <use xlink:href="#DejaVuSans-20" transform="translate(2203.589844 0)"/>
      <use xlink:href="#DejaVuSans-2212" transform="translate(2235.376953 0)"/>
      <use xlink:href="#DejaVuSans-20" transform="translate(2319.166016 0)"/>
      <use xlink:href="#DejaVuSans-63" transform="translate(2350.953125 0)"/>
      <use xlink:href="#DejaVuSans-6f" transform="translate(2405.933594 0)"/>
      <use xlink:href="#DejaVuSans-6e" transform="translate(2467.115234 0)"/>
      <use xlink:href="#DejaVuSans-74" transform="translate(2530.494141 0)"/>
      <use xlink:href="#DejaVuSans-72" transform="translate(2569.703125 0)"/>
      <use xlink:href="#DejaVuSans-6f" transform="translate(2608.566406 0)"/>
      <use xlink:href="#DejaVuSans-6c" transform="translate(2669.748047 0)"/>
      <use xlink:href="#DejaVuSans-29" transform="translate(2697.53125 0)"/>
     </g>
    </g>
   </g>
   <g id="matplotlib.axis_2"/>
   <g id="LineCollection_1">
    <path d="M 725.817874 45.360521 
L 736.746854 45.360521 
" clip-path="url(#p9aefe49a04)" style="fill: none; stroke: #1f2937; stroke-width: 1.5"/>
   </g>
   <g id="line2d_6">
    <defs>
     <path id="m3b230b3032" d="M 0 4 
L 0 -4 
" style="stroke: #1f2937"/>
    </defs>
    <g clip-path="url(#p9aefe49a04)">
     <use xlink:href="#m3b230b3032" x="725.817874" y="45.360521" style="fill: #1f2937; stroke: #1f2937"/>
    </g>
   </g>
   <g id="line2d_7">
    <g clip-path="url(#p9aefe49a04)">
     <use xlink:href="#m3b230b3032" x="736.746854" y="45.360521" style="fill: #1f2937; stroke: #1f2937"/>
    </g>
   </g>
   <g id="LineCollection_2">
    <path d="M 704.935718 79.363721 
L 734.209769 79.363721 
" clip-path="url(#p9aefe49a04)" style="fill: none; stroke: #1f2937; stroke-width: 1.5"/>
   </g>
   <g id="line2d_8">
    <g clip-path="url(#p9aefe49a04)">
     <use xlink:href="#m3b230b3032" x="704.935718" y="79.363721" style="fill: #1f2937; stroke: #1f2937"/>
    </g>
   </g>
   <g id="line2d_9">
    <g clip-path="url(#p9aefe49a04)">
     <use xlink:href="#m3b230b3032" x="734.209769" y="79.363721" style="fill: #1f2937; stroke: #1f2937"/>
    </g>
   </g>
   <g id="LineCollection_3">
    <path d="M 747.870993 113.366921 
L 839.596353 113.366921 
" clip-path="url(#p9aefe49a04)" style="fill: none; stroke: #1f2937; stroke-width: 1.5"/>
   </g>
   <g id="line2d_10">
    <g clip-path="url(#p9aefe49a04)">
     <use xlink:href="#m3b230b3032" x="747.870993" y="113.366921" style="fill: #1f2937; stroke: #1f2937"/>
    </g>
   </g>
   <g id="line2d_11">
    <g clip-path="url(#p9aefe49a04)">
     <use xlink:href="#m3b230b3032" x="839.596353" y="113.366921" style="fill: #1f2937; stroke: #1f2937"/>
    </g>
   </g>
   <g id="line2d_12">
    <path d="M 507.117273 249.379721 
L 963.662727 249.379721 
" clip-path="url(#p9aefe49a04)" style="fill: none; stroke: #374151; stroke-width: 2; stroke-linecap: square"/>
   </g>
   <g id="line2d_13">
    <path d="M 507.117273 254.480201 
L 507.117273 244.279241 
" clip-path="url(#p9aefe49a04)" style="fill: none; stroke: #374151; stroke-width: 2; stroke-linecap: square"/>
   </g>
   <g id="line2d_14">
    <path d="M 963.662727 254.480201 
L 963.662727 244.279241 
" clip-path="url(#p9aefe49a04)" style="fill: none; stroke: #374151; stroke-width: 2; stroke-linecap: square"/>
   </g>
   <g id="line2d_15">
    <path d="M 737.137174 276.582281 
L 737.137174 21.558281 
" clip-path="url(#p9aefe49a04)" style="fill: none; stroke-dasharray: 2.96,1.28; stroke-dashoffset: 0; stroke: #6b7280; stroke-width: 0.8"/>
   </g>
   <g id="line2d_16">
    <defs>
     <path id="ma7b1cce121" d="M -3.5 3.5 
L 3.5 3.5 
L 3.5 -3.5 
L -3.5 -3.5 
z
" style="stroke: #1f2937; stroke-linejoin: miter"/>
    </defs>
    <g clip-path="url(#p9aefe49a04)">
     <use xlink:href="#ma7b1cce121" x="731.282364" y="45.360521" style="fill: #1f2937; stroke: #1f2937; stroke-linejoin: miter"/>
    </g>
   </g>
   <g id="line2d_17">
    <g clip-path="url(#p9aefe49a04)">
     <use xlink:href="#ma7b1cce121" x="719.572744" y="79.363721" style="fill: #1f2937; stroke: #1f2937; stroke-linejoin: miter"/>
    </g>
   </g>
   <g id="line2d_18">
    <g clip-path="url(#p9aefe49a04)">
     <use xlink:href="#ma7b1cce121" x="793.733673" y="113.366921" style="fill: #1f2937; stroke: #1f2937; stroke-linejoin: miter"/>
    </g>
   </g>
   <g id="patch_6">
    <path d="M 484.29 276.582281 
L 484.29 21.558281 
" style="fill: none; stroke: #000000; stroke-width: 0.8; stroke-linejoin: miter; stroke-linecap: square"/>
   </g>
   <g id="patch_7">
    <path d="M 986.49 276.582281 
L 986.49 21.558281 
" style="fill: none; stroke: #000000; stroke-width: 0.8; stroke-linejoin: miter; stroke-linecap: square"/>
   </g>
   <g id="patch_8">
    <path d="M 484.29 276.582281 
L 986.49 276.582281 
" style="fill: none; stroke: #000000; stroke-width: 0.8; stroke-linejoin: miter; stroke-linecap: square"/>
   </g>
   <g id="patch_9">
    <path d="M 484.29 21.558281 
L 986.49 21.558281 
" style="fill: none; stroke: #000000; stroke-width: 0.8; stroke-linejoin: miter; stroke-linecap: square"/>
   </g>
   <g id="text_7">
    <!-- ChapnickM_2025_d1605d -->
    <g transform="translate(7.2 47.587787) scale(0.085 -0.085)">
     <defs>
      <path id="DejaVuSans-68" d="M 3513 2113 
L 3513 0 
L 2938 0 
L 2938 2094 
Q 2938 2591 2744 2837 
Q 2550 3084 2163 3084 
Q 1697 3084 1428 2787 
Q 1159 2491 1159 1978 
L 1159 0 
L 581 0 
L 581 4863 
L 1159 4863 
L 1159 2956 
Q 1366 3272 1645 3428 
Q 1925 3584 2291 3584 
Q 2894 3584 3203 3211 
Q 3513 2838 3513 2113 
z
" transform="scale(0.015625)"/>
      <path id="DejaVuSans-70" d="M 1159 525 
L 1159 -1331 
L 581 -1331 
L 581 3500 
L 1159 3500 
L 1159 2969 
Q 1341 3281 1617 3432 
Q 1894 3584 2278 3584 
Q 2916 3584 3314 3078 
Q 3713 2572 3713 1747 
Q 3713 922 3314 415 
Q 2916 -91 2278 -91 
Q 1894 -91 1617 61 
Q 1341 213 1159 525 
z
M 3116 1747 
Q 3116 2381 2855 2742 
Q 2594 3103 2138 3103 
Q 1681 3103 1420 2742 
Q 1159 2381 1159 1747 
Q 1159 1113 1420 752 
Q 1681 391 2138 391 
Q 2594 391 2855 752 
Q 3116 1113 3116 1747 
z
" transform="scale(0.015625)"/>
      <path id="DejaVuSans-6b" d="M 581 4863 
L 1159 4863 
L 1159 1991 
L 2875 3500 
L 3609 3500 
L 1753 1863 
L 3688 0 
L 2938 0 
L 1159 1709 
L 1159 0 
L 581 0 
L 581 4863 
z
" transform="scale(0.015625)"/>
      <path id="DejaVuSans-4d" d="M 628 4666 
L 1569 4666 
L 2759 1491 
L 3956 4666 
L 4897 4666 
L 4897 0 
L 4281 0 
L 4281 4097 
L 3078 897 
L 2444 897 
L 1241 4097 
L 1241 0 
L 628 0 
L 628 4666 
z
" transform="scale(0.015625)"/>
      <path id="DejaVuSans-5f" d="M 3263 -1063 
L 3263 -1509 
L -63 -1509 
L -63 -1063 
L 3263 -1063 
z
" transform="scale(0.015625)"/>
      <path id="DejaVuSans-32" d="M 1228 531 
L 3431 531 
L 3431 0 
L 469 0 
L 469 531 
Q 828 903 1448 1529 
Q 2069 2156 2228 2338 
Q 2531 2678 2651 2914 
Q 2772 3150 2772 3378 
Q 2772 3750 2511 3984 
Q 2250 4219 1831 4219 
Q 1534 4219 1204 4116 
Q 875 4013 500 3803 
L 500 4441 
Q 881 4594 1212 4672 
Q 1544 4750 1819 4750 
Q 2544 4750 2975 4387 
Q 3406 4025 3406 3419 
Q 3406 3131 3298 2873 
Q 3191 2616 2906 2266 
Q 2828 2175 2409 1742 
Q 1991 1309 1228 531 
z
" transform="scale(0.015625)"/>
      <path id="DejaVuSans-36" d="M 2113 2584 
Q 1688 2584 1439 2293 
Q 1191 2003 1191 1497 
Q 1191 994 1439 701 
Q 1688 409 2113 409 
Q 2538 409 2786 701 
Q 3034 994 3034 1497 
Q 3034 2003 2786 2293 
Q 2538 2584 2113 2584 
z
M 3366 4563 
L 3366 3988 
Q 3128 4100 2886 4159 
Q 2644 4219 2406 4219 
Q 1781 4219 1451 3797 
Q 1122 3375 1075 2522 
Q 1259 2794 1537 2939 
Q 1816 3084 2150 3084 
Q 2853 3084 3261 2657 
Q 3669 2231 3669 1497 
Q 3669 778 3244 343 
Q 2819 -91 2113 -91 
Q 1303 -91 875 529 
Q 447 1150 447 2328 
Q 447 3434 972 4092 
Q 1497 4750 2381 4750 
Q 2619 4750 2861 4703 
Q 3103 4656 3366 4563 
z
" transform="scale(0.015625)"/>
     </defs>
     <use xlink:href="#DejaVuSans-43"/>
     <use xlink:href="#DejaVuSans-68" transform="translate(69.824219 0)"/>
     <use xlink:href="#DejaVuSans-61" transform="translate(133.203125 0)"/>
     <use xlink:href="#DejaVuSans-70" transform="translate(194.482422 0)"/>
     <use xlink:href="#DejaVuSans-6e" transform="translate(257.958984 0)"/>
     <use xlink:href="#DejaVuSans-69" transform="translate(321.337891 0)"/>
     <use xlink:href="#DejaVuSans-63" transform="translate(349.121094 0)"/>
     <use xlink:href="#DejaVuSans-6b" transform="translate(404.101562 0)"/>
     <use xlink:href="#DejaVuSans-4d" transform="translate(462.011719 0)"/>
     <use xlink:href="#DejaVuSans-5f" transform="translate(548.291016 0)"/>
     <use xlink:href="#DejaVuSans-32" transform="translate(598.291016 0)"/>
     <use xlink:href="#DejaVuSans-30" transform="translate(661.914062 0)"/>
     <use xlink:href="#DejaVuSans-32" transform="translate(725.537109 0)"/>
     <use xlink:href="#DejaVuSans-35" transform="translate(789.160156 0)"/>
     <use xlink:href="#DejaVuSans-5f" transform="translate(852.783203 0)"/>
     <use xlink:href="#DejaVuSans-64" transform="translate(902.783203 0)"/>
     <use xlink:href="#DejaVuSans-31" transform="translate(966.259766 0)"/>
     <use xlink:href="#DejaVuSans-36" transform="translate(1029.882812 0)"/>
     <use xlink:href="#DejaVuSans-30" transform="translate(1093.505859 0)"/>
     <use xlink:href="#DejaVuSans-35" transform="translate(1157.128906 0)"/>
     <use xlink:href="#DejaVuSans-64" transform="translate(1220.751953 0)"/>
    </g>
   </g>
   <g id="text_8">
    <!-- -0.030 [-0.058, -0.002] -->
    <g transform="translate(890.23175 47.568021) scale(0.08 -0.08)">
     <defs>
      <path id="DejaVuSans-2d" d="M 313 2009 
L 1997 2009 
L 1997 1497 
L 313 1497 
L 313 2009 
z
" transform="scale(0.015625)"/>
      <path id="DejaVuSans-33" d="M 2597 2516 
Q 3050 2419 3304 2112 
Q 3559 1806 3559 1356 
Q 3559 666 3084 287 
Q 2609 -91 1734 -91 
Q 1441 -91 1130 -33 
Q 819 25 488 141 
L 488 750 
Q 750 597 1062 519 
Q 1375 441 1716 441 
Q 2309 441 2620 675 
Q 2931 909 2931 1356 
Q 2931 1769 2642 2001 
Q 2353 2234 1838 2234 
L 1294 2234 
L 1294 2753 
L 1863 2753 
Q 2328 2753 2575 2939 
Q 2822 3125 2822 3475 
Q 2822 3834 2567 4026 
Q 2313 4219 1838 4219 
Q 1578 4219 1281 4162 
Q 984 4106 628 3988 
L 628 4550 
Q 988 4650 1302 4700 
Q 1616 4750 1894 4750 
Q 2613 4750 3031 4423 
Q 3450 4097 3450 3541 
Q 3450 3153 3228 2886 
Q 3006 2619 2597 2516 
z
" transform="scale(0.015625)"/>
      <path id="DejaVuSans-5b" d="M 550 4863 
L 1875 4863 
L 1875 4416 
L 1125 4416 
L 1125 -397 
L 1875 -397 
L 1875 -844 
L 550 -844 
L 550 4863 
z
" transform="scale(0.015625)"/>
      <path id="DejaVuSans-38" d="M 2034 2216 
Q 1584 2216 1326 1975 
Q 1069 1734 1069 1313 
Q 1069 891 1326 650 
Q 1584 409 2034 409 
Q 2484 409 2743 651 
Q 3003 894 3003 1313 
Q 3003 1734 2745 1975 
Q 2488 2216 2034 2216 
z
M 1403 2484 
Q 997 2584 770 2862 
Q 544 3141 544 3541 
Q 544 4100 942 4425 
Q 1341 4750 2034 4750 
Q 2731 4750 3128 4425 
Q 3525 4100 3525 3541 
Q 3525 3141 3298 2862 
Q 3072 2584 2669 2484 
Q 3125 2378 3379 2068 
Q 3634 1759 3634 1313 
Q 3634 634 3220 271 
Q 2806 -91 2034 -91 
Q 1263 -91 848 271 
Q 434 634 434 1313 
Q 434 1759 690 2068 
Q 947 2378 1403 2484 
z
M 1172 3481 
Q 1172 3119 1398 2916 
Q 1625 2713 2034 2713 
Q 2441 2713 2670 2916 
Q 2900 3119 2900 3481 
Q 2900 3844 2670 4047 
Q 2441 4250 2034 4250 
Q 1625 4250 1398 4047 
Q 1172 3844 1172 3481 
z
" transform="scale(0.015625)"/>
      <path id="DejaVuSans-2c" d="M 750 794 
L 1409 794 
L 1409 256 
L 897 -744 
L 494 -744 
L 750 256 
L 750 794 
z
" transform="scale(0.015625)"/>
      <path id="DejaVuSans-5d" d="M 1947 4863 
L 1947 -844 
L 622 -844 
L 622 -397 
L 1369 -397 
L 1369 4416 
L 622 4416 
L 622 4863 
L 1947 4863 
z
" transform="scale(0.015625)"/>
     </defs>
     <use xlink:href="#DejaVuSans-2d"/>
     <use xlink:href="#DejaVuSans-30" transform="translate(36.083984 0)"/>
     <use xlink:href="#DejaVuSans-2e" transform="translate(99.707031 0)"/>
     <use xlink:href="#DejaVuSans-30" transform="translate(131.494141 0)"/>
     <use xlink:href="#DejaVuSans-33" transform="translate(195.117188 0)"/>
     <use xlink:href="#DejaVuSans-30" transform="translate(258.740234 0)"/>
     <use xlink:href="#DejaVuSans-20" transform="translate(322.363281 0)"/>
     <use xlink:href="#DejaVuSans-5b" transform="translate(354.150391 0)"/>
     <use xlink:href="#DejaVuSans-2d" transform="translate(393.164062 0)"/>
     <use xlink:href="#DejaVuSans-30" transform="translate(429.248047 0)"/>
     <use xlink:href="#DejaVuSans-2e" transform="translate(492.871094 0)"/>
     <use xlink:href="#DejaVuSans-30" transform="translate(524.658203 0)"/>
     <use xlink:href="#DejaVuSans-35" transform="translate(588.28125 0)"/>
     <use xlink:href="#DejaVuSans-38" transform="translate(651.904297 0)"/>
     <use xlink:href="#DejaVuSans-2c" transform="translate(715.527344 0)"/>
     <use xlink:href="#DejaVuSans-20" transform="translate(747.314453 0)"/>
     <use xlink:href="#DejaVuSans-2d" transform="translate(779.101562 0)"/>
     <use xlink:href="#DejaVuSans-30" transform="translate(815.185547 0)"/>
     <use xlink:href="#DejaVuSans-2e" transform="translate(878.808594 0)"/>
     <use xlink:href="#DejaVuSans-30" transform="translate(910.595703 0)"/>
     <use xlink:href="#DejaVuSans-30" transform="translate(974.21875 0)"/>
     <use xlink:href="#DejaVuSans-32" transform="translate(1037.841797 0)"/>
     <use xlink:href="#DejaVuSans-5d" transform="translate(1101.464844 0)"/>
    </g>
   </g>
   <g id="text_9">
    <!-- CorleyMJ_2025_ad19fa -->
    <g transform="translate(7.2 81.590987) scale(0.085 -0.085)">
     <defs>
      <path id="DejaVuSans-79" d="M 2059 -325 
Q 1816 -950 1584 -1140 
Q 1353 -1331 966 -1331 
L 506 -1331 
L 506 -850 
L 844 -850 
Q 1081 -850 1212 -737 
Q 1344 -625 1503 -206 
L 1606 56 
L 191 3500 
L 800 3500 
L 1894 763 
L 2988 3500 
L 3597 3500 
L 2059 -325 
z
" transform="scale(0.015625)"/>
      <path id="DejaVuSans-4a" d="M 628 4666 
L 1259 4666 
L 1259 325 
Q 1259 -519 939 -900 
Q 619 -1281 -91 -1281 
L -331 -1281 
L -331 -750 
L -134 -750 
Q 284 -750 456 -515 
Q 628 -281 628 325 
L 628 4666 
z
" transform="scale(0.015625)"/>
      <path id="DejaVuSans-39" d="M 703 97 
L 703 672 
Q 941 559 1184 500 
Q 1428 441 1663 441 
Q 2288 441 2617 861 
Q 2947 1281 2994 2138 
Q 2813 1869 2534 1725 
Q 2256 1581 1919 1581 
Q 1219 1581 811 2004 
Q 403 2428 403 3163 
Q 403 3881 828 4315 
Q 1253 4750 1959 4750 
Q 2769 4750 3195 4129 
Q 3622 3509 3622 2328 
Q 3622 1225 3098 567 
Q 2575 -91 1691 -91 
Q 1453 -91 1209 -44 
Q 966 3 703 97 
z
M 1959 2075 
Q 2384 2075 2632 2365 
Q 2881 2656 2881 3163 
Q 2881 3666 2632 3958 
Q 2384 4250 1959 4250 
Q 1534 4250 1286 3958 
Q 1038 3666 1038 3163 
Q 1038 2656 1286 2365 
Q 1534 2075 1959 2075 
z
" transform="scale(0.015625)"/>
     </defs>
     <use xlink:href="#DejaVuSans-43"/>
     <use xlink:href="#DejaVuSans-6f" transform="translate(69.824219 0)"/>
     <use xlink:href="#DejaVuSans-72" transform="translate(131.005859 0)"/>
     <use xlink:href="#DejaVuSans-6c" transform="translate(172.119141 0)"/>
     <use xlink:href="#DejaVuSans-65" transform="translate(199.902344 0)"/>
     <use xlink:href="#DejaVuSans-79" transform="translate(261.425781 0)"/>
     <use xlink:href="#DejaVuSans-4d" transform="translate(320.605469 0)"/>
     <use xlink:href="#DejaVuSans-4a" transform="translate(406.884766 0)"/>
     <use xlink:href="#DejaVuSans-5f" transform="translate(436.376953 0)"/>
     <use xlink:href="#DejaVuSans-32" transform="translate(486.376953 0)"/>
     <use xlink:href="#DejaVuSans-30" transform="translate(550 0)"/>
     <use xlink:href="#DejaVuSans-32" transform="translate(613.623047 0)"/>
     <use xlink:href="#DejaVuSans-35" transform="translate(677.246094 0)"/>
     <use xlink:href="#DejaVuSans-5f" transform="translate(740.869141 0)"/>
     <use xlink:href="#DejaVuSans-61" transform="translate(790.869141 0)"/>
     <use xlink:href="#DejaVuSans-64" transform="translate(852.148438 0)"/>
     <use xlink:href="#DejaVuSans-31" transform="translate(915.625 0)"/>
     <use xlink:href="#DejaVuSans-39" transform="translate(979.248047 0)"/>
     <use xlink:href="#DejaVuSans-66" transform="translate(1042.871094 0)"/>
     <use xlink:href="#DejaVuSans-61" transform="translate(1078.076172 0)"/>
    </g>
   </g>
   <g id="text_10">
    <!-- -0.090 [-0.165, -0.015] -->
    <g transform="translate(890.23175 81.571221) scale(0.08 -0.08)">
     <use xlink:href="#DejaVuSans-2d"/>
     <use xlink:href="#DejaVuSans-30" transform="translate(36.083984 0)"/>
     <use xlink:href="#DejaVuSans-2e" transform="translate(99.707031 0)"/>
     <use xlink:href="#DejaVuSans-30" transform="translate(131.494141 0)"/>
     <use xlink:href="#DejaVuSans-39" transform="translate(195.117188 0)"/>
     <use xlink:href="#DejaVuSans-30" transform="translate(258.740234 0)"/>
     <use xlink:href="#DejaVuSans-20" transform="translate(322.363281 0)"/>
     <use xlink:href="#DejaVuSans-5b" transform="translate(354.150391 0)"/>
     <use xlink:href="#DejaVuSans-2d" transform="translate(393.164062 0)"/>
     <use xlink:href="#DejaVuSans-30" transform="translate(429.248047 0)"/>
     <use xlink:href="#DejaVuSans-2e" transform="translate(492.871094 0)"/>
     <use xlink:href="#DejaVuSans-31" transform="translate(524.658203 0)"/>
     <use xlink:href="#DejaVuSans-36" transform="translate(588.28125 0)"/>
     <use xlink:href="#DejaVuSans-35" transform="translate(651.904297 0)"/>
     <use xlink:href="#DejaVuSans-2c" transform="translate(715.527344 0)"/>
     <use xlink:href="#DejaVuSans-20" transform="translate(747.314453 0)"/>
     <use xlink:href="#DejaVuSans-2d" transform="translate(779.101562 0)"/>
     <use xlink:href="#DejaVuSans-30" transform="translate(815.185547 0)"/>
     <use xlink:href="#DejaVuSans-2e" transform="translate(878.808594 0)"/>
     <use xlink:href="#DejaVuSans-30" transform="translate(910.595703 0)"/>
     <use xlink:href="#DejaVuSans-31" transform="translate(974.21875 0)"/>
     <use xlink:href="#DejaVuSans-35" transform="translate(1037.841797 0)"/>
     <use xlink:href="#DejaVuSans-5d" transform="translate(1101.464844 0)"/>
    </g>
   </g>
   <g id="text_11">
    <!-- MerrillSM_2024_5ee99d -->
    <g transform="translate(7.2 115.594187) scale(0.085 -0.085)">
     <defs>
      <path id="DejaVuSans-53" d="M 3425 4513 
L 3425 3897 
Q 3066 4069 2747 4153 
Q 2428 4238 2131 4238 
Q 1616 4238 1336 4038 
Q 1056 3838 1056 3469 
Q 1056 3159 1242 3001 
Q 1428 2844 1947 2747 
L 2328 2669 
Q 3034 2534 3370 2195 
Q 3706 1856 3706 1288 
Q 3706 609 3251 259 
Q 2797 -91 1919 -91 
Q 1588 -91 1214 -16 
Q 841 59 441 206 
L 441 856 
Q 825 641 1194 531 
Q 1563 422 1919 422 
Q 2459 422 2753 634 
Q 3047 847 3047 1241 
Q 3047 1584 2836 1778 
Q 2625 1972 2144 2069 
L 1759 2144 
Q 1053 2284 737 2584 
Q 422 2884 422 3419 
Q 422 4038 858 4394 
Q 1294 4750 2059 4750 
Q 2388 4750 2728 4690 
Q 3069 4631 3425 4513 
z
" transform="scale(0.015625)"/>
      <path id="DejaVuSans-34" d="M 2419 4116 
L 825 1625 
L 2419 1625 
L 2419 4116 
z
M 2253 4666 
L 3047 4666 
L 3047 1625 
L 3713 1625 
L 3713 1100 
L 3047 1100 
L 3047 0 
L 2419 0 
L 2419 1100 
L 313 1100 
L 313 1709 
L 2253 4666 
z
" transform="scale(0.015625)"/>
     </defs>
     <use xlink:href="#DejaVuSans-4d"/>
     <use xlink:href="#DejaVuSans-65" transform="translate(86.279297 0)"/>
     <use xlink:href="#DejaVuSans-72" transform="translate(147.802734 0)"/>
     <use xlink:href="#DejaVuSans-72" transform="translate(187.166016 0)"/>
     <use xlink:href="#DejaVuSans-69" transform="translate(228.279297 0)"/>
     <use xlink:href="#DejaVuSans-6c" transform="translate(256.0625 0)"/>
     <use xlink:href="#DejaVuSans-6c" transform="translate(283.845703 0)"/>
     <use xlink:href="#DejaVuSans-53" transform="translate(311.628906 0)"/>
     <use xlink:href="#DejaVuSans-4d" transform="translate(375.105469 0)"/>
     <use xlink:href="#DejaVuSans-5f" transform="translate(461.384766 0)"/>
     <use xlink:href="#DejaVuSans-32" transform="translate(511.384766 0)"/>
     <use xlink:href="#DejaVuSans-30" transform="translate(575.007812 0)"/>
     <use xlink:href="#DejaVuSans-32" transform="translate(638.630859 0)"/>
     <use xlink:href="#DejaVuSans-34" transform="translate(702.253906 0)"/>
     <use xlink:href="#DejaVuSans-5f" transform="translate(765.876953 0)"/>
     <use xlink:href="#DejaVuSans-35" transform="translate(815.876953 0)"/>
     <use xlink:href="#DejaVuSans-65" transform="translate(879.5 0)"/>
     <use xlink:href="#DejaVuSans-65" transform="translate(941.023438 0)"/>
     <use xlink:href="#DejaVuSans-39" transform="translate(1002.546875 0)"/>
     <use xlink:href="#DejaVuSans-39" transform="translate(1066.169922 0)"/>
     <use xlink:href="#DejaVuSans-64" transform="translate(1129.792969 0)"/>
    </g>
   </g>
   <g id="text_12">
    <!-- +0.290 [+0.055, +0.525] -->
    <g transform="translate(878.77925 115.574421) scale(0.08 -0.08)">
     <defs>
      <path id="DejaVuSans-2b" d="M 2944 4013 
L 2944 2272 
L 4684 2272 
L 4684 1741 
L 2944 1741 
L 2944 0 
L 2419 0 
L 2419 1741 
L 678 1741 
L 678 2272 
L 2419 2272 
L 2419 4013 
L 2944 4013 
z
" transform="scale(0.015625)"/>
     </defs>
     <use xlink:href="#DejaVuSans-2b"/>
     <use xlink:href="#DejaVuSans-30" transform="translate(83.789062 0)"/>
     <use xlink:href="#DejaVuSans-2e" transform="translate(147.412109 0)"/>
     <use xlink:href="#DejaVuSans-32" transform="translate(179.199219 0)"/>
     <use xlink:href="#DejaVuSans-39" transform="translate(242.822266 0)"/>
     <use xlink:href="#DejaVuSans-30" transform="translate(306.445312 0)"/>
     <use xlink:href="#DejaVuSans-20" transform="translate(370.068359 0)"/>
     <use xlink:href="#DejaVuSans-5b" transform="translate(401.855469 0)"/>
     <use xlink:href="#DejaVuSans-2b" transform="translate(440.869141 0)"/>
     <use xlink:href="#DejaVuSans-30" transform="translate(524.658203 0)"/>
     <use xlink:href="#DejaVuSans-2e" transform="translate(588.28125 0)"/>
     <use xlink:href="#DejaVuSans-30" transform="translate(620.068359 0)"/>
     <use xlink:href="#DejaVuSans-35" transform="translate(683.691406 0)"/>
     <use xlink:href="#DejaVuSans-35" transform="translate(747.314453 0)"/>
     <use xlink:href="#DejaVuSans-2c" transform="translate(810.9375 0)"/>
     <use xlink:href="#DejaVuSans-20" transform="translate(842.724609 0)"/>
     <use xlink:href="#DejaVuSans-2b" transform="translate(874.511719 0)"/>
     <use xlink:href="#DejaVuSans-30" transform="translate(958.300781 0)"/>
     <use xlink:href="#DejaVuSans-2e" transform="translate(1021.923828 0)"/>
     <use xlink:href="#DejaVuSans-35" transform="translate(1053.710938 0)"/>
     <use xlink:href="#DejaVuSans-32" transform="translate(1117.333984 0)"/>
     <use xlink:href="#DejaVuSans-35" transform="translate(1180.957031 0)"/>
     <use xlink:href="#DejaVuSans-5d" transform="translate(1244.580078 0)"/>
    </g>
   </g>
   <g id="text_13">
    <!-- Pooled DL (RE) -->
    <g transform="translate(7.2 149.853559) scale(0.09 -0.09)">
     <defs>
      <path id="DejaVuSans-Bold-50" d="M 588 4666 
L 2584 4666 
Q 3475 4666 3951 4270 
Q 4428 3875 4428 3144 
Q 4428 2409 3951 2014 
Q 3475 1619 2584 1619 
L 1791 1619 
L 1791 0 
L 588 0 
L 588 4666 
z
M 1791 3794 
L 1791 2491 
L 2456 2491 
Q 2806 2491 2997 2661 
Q 3188 2831 3188 3144 
Q 3188 3456 2997 3625 
Q 2806 3794 2456 3794 
L 1791 3794 
z
" transform="scale(0.015625)"/>
      <path id="DejaVuSans-Bold-6f" d="M 2203 2784 
Q 1831 2784 1636 2517 
Q 1441 2250 1441 1747 
Q 1441 1244 1636 976 
Q 1831 709 2203 709 
Q 2569 709 2762 976 
Q 2956 1244 2956 1747 
Q 2956 2250 2762 2517 
Q 2569 2784 2203 2784 
z
M 2203 3584 
Q 3106 3584 3614 3096 
Q 4122 2609 4122 1747 
Q 4122 884 3614 396 
Q 3106 -91 2203 -91 
Q 1297 -91 786 396 
Q 275 884 275 1747 
Q 275 2609 786 3096 
Q 1297 3584 2203 3584 
z
" transform="scale(0.015625)"/>
      <path id="DejaVuSans-Bold-6c" d="M 538 4863 
L 1656 4863 
L 1656 0 
L 538 0 
L 538 4863 
z
" transform="scale(0.015625)"/>
      <path id="DejaVuSans-Bold-65" d="M 4031 1759 
L 4031 1441 
L 1416 1441 
Q 1456 1047 1700 850 
Q 1944 653 2381 653 
Q 2734 653 3104 758 
Q 3475 863 3866 1075 
L 3866 213 
Q 3469 63 3072 -14 
Q 2675 -91 2278 -91 
Q 1328 -91 801 392 
Q 275 875 275 1747 
Q 275 2603 792 3093 
Q 1309 3584 2216 3584 
Q 3041 3584 3536 3087 
Q 4031 2591 4031 1759 
z
M 2881 2131 
Q 2881 2450 2695 2645 
Q 2509 2841 2209 2841 
Q 1884 2841 1681 2658 
Q 1478 2475 1428 2131 
L 2881 2131 
z
" transform="scale(0.015625)"/>
      <path id="DejaVuSans-Bold-64" d="M 2919 2988 
L 2919 4863 
L 4044 4863 
L 4044 0 
L 2919 0 
L 2919 506 
Q 2688 197 2409 53 
Q 2131 -91 1766 -91 
Q 1119 -91 703 423 
Q 288 938 288 1747 
Q 288 2556 703 3070 
Q 1119 3584 1766 3584 
Q 2128 3584 2408 3439 
Q 2688 3294 2919 2988 
z
M 2181 722 
Q 2541 722 2730 984 
Q 2919 1247 2919 1747 
Q 2919 2247 2730 2509 
Q 2541 2772 2181 2772 
Q 1825 2772 1636 2509 
Q 1447 2247 1447 1747 
Q 1447 1247 1636 984 
Q 1825 722 2181 722 
z
" transform="scale(0.015625)"/>
      <path id="DejaVuSans-Bold-20" transform="scale(0.015625)"/>
      <path id="DejaVuSans-Bold-44" d="M 1791 3756 
L 1791 909 
L 2222 909 
Q 2959 909 3348 1275 
Q 3738 1641 3738 2338 
Q 3738 3031 3350 3393 
Q 2963 3756 2222 3756 
L 1791 3756 
z
M 588 4666 
L 1856 4666 
Q 2919 4666 3439 4514 
Q 3959 4363 4331 4000 
Q 4659 3684 4818 3271 
Q 4978 2859 4978 2338 
Q 4978 1809 4818 1395 
Q 4659 981 4331 666 
Q 3956 303 3431 151 
Q 2906 0 1856 0 
L 588 0 
L 588 4666 
z
" transform="scale(0.015625)"/>
      <path id="DejaVuSans-Bold-4c" d="M 588 4666 
L 1791 4666 
L 1791 909 
L 3903 909 
L 3903 0 
L 588 0 
L 588 4666 
z
" transform="scale(0.015625)"/>
      <path id="DejaVuSans-Bold-28" d="M 2413 -844 
L 1484 -844 
Q 1006 -72 778 623 
Q 550 1319 550 2003 
Q 550 2688 779 3389 
Q 1009 4091 1484 4856 
L 2413 4856 
Q 2013 4116 1813 3408 
Q 1613 2700 1613 2009 
Q 1613 1319 1811 609 
Q 2009 -100 2413 -844 
z
" transform="scale(0.015625)"/>
      <path id="DejaVuSans-Bold-52" d="M 2297 2597 
Q 2675 2597 2839 2737 
Q 3003 2878 3003 3200 
Q 3003 3519 2839 3656 
Q 2675 3794 2297 3794 
L 1791 3794 
L 1791 2597 
L 2297 2597 
z
M 1791 1766 
L 1791 0 
L 588 0 
L 588 4666 
L 2425 4666 
Q 3347 4666 3776 4356 
Q 4206 4047 4206 3378 
Q 4206 2916 3982 2619 
Q 3759 2322 3309 2181 
Q 3556 2125 3751 1926 
Q 3947 1728 4147 1325 
L 4800 0 
L 3519 0 
L 2950 1159 
Q 2778 1509 2601 1637 
Q 2425 1766 2131 1766 
L 1791 1766 
z
" transform="scale(0.015625)"/>
      <path id="DejaVuSans-Bold-45" d="M 588 4666 
L 3834 4666 
L 3834 3756 
L 1791 3756 
L 1791 2888 
L 3713 2888 
L 3713 1978 
L 1791 1978 
L 1791 909 
L 3903 909 
L 3903 0 
L 588 0 
L 588 4666 
z
" transform="scale(0.015625)"/>
      <path id="DejaVuSans-Bold-29" d="M 513 -844 
Q 913 -100 1113 609 
Q 1313 1319 1313 2009 
Q 1313 2700 1113 3408 
Q 913 4116 513 4856 
L 1441 4856 
Q 1916 4091 2145 3389 
Q 2375 2688 2375 2003 
Q 2375 1319 2147 623 
Q 1919 -72 1441 -844 
L 513 -844 
z
" transform="scale(0.015625)"/>
     </defs>
     <use xlink:href="#DejaVuSans-Bold-50"/>
     <use xlink:href="#DejaVuSans-Bold-6f" transform="translate(73.291016 0)"/>
     <use xlink:href="#DejaVuSans-Bold-6f" transform="translate(141.992188 0)"/>
     <use xlink:href="#DejaVuSans-Bold-6c" transform="translate(210.693359 0)"/>
     <use xlink:href="#DejaVuSans-Bold-65" transform="translate(244.970703 0)"/>
     <use xlink:href="#DejaVuSans-Bold-64" transform="translate(312.792969 0)"/>
     <use xlink:href="#DejaVuSans-Bold-20" transform="translate(384.375 0)"/>
     <use xlink:href="#DejaVuSans-Bold-44" transform="translate(419.189453 0)"/>
     <use xlink:href="#DejaVuSans-Bold-4c" transform="translate(502.197266 0)"/>
     <use xlink:href="#DejaVuSans-Bold-20" transform="translate(565.917969 0)"/>
     <use xlink:href="#DejaVuSans-Bold-28" transform="translate(600.732422 0)"/>
     <use xlink:href="#DejaVuSans-Bold-52" transform="translate(646.435547 0)"/>
     <use xlink:href="#DejaVuSans-Bold-45" transform="translate(723.4375 0)"/>
     <use xlink:href="#DejaVuSans-Bold-29" transform="translate(791.748047 0)"/>
    </g>
   </g>
   <g id="text_14">
    <!-- -0.009 [-0.112, +0.094] -->
    <g transform="translate(880.473391 149.71559) scale(0.085 -0.085)">
     <use xlink:href="#DejaVuSans-2d"/>
     <use xlink:href="#DejaVuSans-30" transform="translate(36.083984 0)"/>
     <use xlink:href="#DejaVuSans-2e" transform="translate(99.707031 0)"/>
     <use xlink:href="#DejaVuSans-30" transform="translate(131.494141 0)"/>
     <use xlink:href="#DejaVuSans-30" transform="translate(195.117188 0)"/>
     <use xlink:href="#DejaVuSans-39" transform="translate(258.740234 0)"/>
     <use xlink:href="#DejaVuSans-20" transform="translate(322.363281 0)"/>
     <use xlink:href="#DejaVuSans-5b" transform="translate(354.150391 0)"/>
     <use xlink:href="#DejaVuSans-2d" transform="translate(393.164062 0)"/>
     <use xlink:href="#DejaVuSans-30" transform="translate(429.248047 0)"/>
     <use xlink:href="#DejaVuSans-2e" transform="translate(492.871094 0)"/>
     <use xlink:href="#DejaVuSans-31" transform="translate(524.658203 0)"/>
     <use xlink:href="#DejaVuSans-31" transform="translate(588.28125 0)"/>
     <use xlink:href="#DejaVuSans-32" transform="translate(651.904297 0)"/>
     <use xlink:href="#DejaVuSans-2c" transform="translate(715.527344 0)"/>
     <use xlink:href="#DejaVuSans-20" transform="translate(747.314453 0)"/>
     <use xlink:href="#DejaVuSans-2b" transform="translate(779.101562 0)"/>
     <use xlink:href="#DejaVuSans-30" transform="translate(862.890625 0)"/>
     <use xlink:href="#DejaVuSans-2e" transform="translate(926.513672 0)"/>
     <use xlink:href="#DejaVuSans-30" transform="translate(958.300781 0)"/>
     <use xlink:href="#DejaVuSans-39" transform="translate(1021.923828 0)"/>
     <use xlink:href="#DejaVuSans-34" transform="translate(1085.546875 0)"/>
     <use xlink:href="#DejaVuSans-5d" transform="translate(1149.169922 0)"/>
    </g>
   </g>
   <g id="text_15">
    <!-- HKSJ -->
    <g transform="translate(7.2 183.856759) scale(0.09 -0.09)">
     <defs>
      <path id="DejaVuSans-Bold-48" d="M 588 4666 
L 1791 4666 
L 1791 2888 
L 3566 2888 
L 3566 4666 
L 4769 4666 
L 4769 0 
L 3566 0 
L 3566 1978 
L 1791 1978 
L 1791 0 
L 588 0 
L 588 4666 
z
" transform="scale(0.015625)"/>
      <path id="DejaVuSans-Bold-4b" d="M 588 4666 
L 1791 4666 
L 1791 2963 
L 3525 4666 
L 4922 4666 
L 2675 2456 
L 5153 0 
L 3647 0 
L 1791 1838 
L 1791 0 
L 588 0 
L 588 4666 
z
" transform="scale(0.015625)"/>
      <path id="DejaVuSans-Bold-53" d="M 3834 4519 
L 3834 3531 
Q 3450 3703 3084 3790 
Q 2719 3878 2394 3878 
Q 1963 3878 1756 3759 
Q 1550 3641 1550 3391 
Q 1550 3203 1689 3098 
Q 1828 2994 2194 2919 
L 2706 2816 
Q 3484 2659 3812 2340 
Q 4141 2022 4141 1434 
Q 4141 663 3683 286 
Q 3225 -91 2284 -91 
Q 1841 -91 1394 -6 
Q 947 78 500 244 
L 500 1259 
Q 947 1022 1364 901 
Q 1781 781 2169 781 
Q 2563 781 2772 912 
Q 2981 1044 2981 1288 
Q 2981 1506 2839 1625 
Q 2697 1744 2272 1838 
L 1806 1941 
Q 1106 2091 782 2419 
Q 459 2747 459 3303 
Q 459 4000 909 4375 
Q 1359 4750 2203 4750 
Q 2588 4750 2994 4692 
Q 3400 4634 3834 4519 
z
" transform="scale(0.015625)"/>
      <path id="DejaVuSans-Bold-4a" d="M 588 4666 
L 1791 4666 
L 1791 453 
Q 1791 -419 1317 -850 
Q 844 -1281 -116 -1281 
L -359 -1281 
L -359 -372 
L -172 -372 
Q 203 -372 395 -162 
Q 588 47 588 453 
L 588 4666 
z
" transform="scale(0.015625)"/>
     </defs>
     <use xlink:href="#DejaVuSans-Bold-48"/>
     <use xlink:href="#DejaVuSans-Bold-4b" transform="translate(83.691406 0)"/>
     <use xlink:href="#DejaVuSans-Bold-53" transform="translate(161.181641 0)"/>
     <use xlink:href="#DejaVuSans-Bold-4a" transform="translate(233.203125 0)"/>
    </g>
   </g>
   <g id="text_16">
    <!-- -0.009 [-0.384, +0.366] -->
    <g transform="translate(880.473391 183.71879) scale(0.085 -0.085)">
     <use xlink:href="#DejaVuSans-2d"/>
     <use xlink:href="#DejaVuSans-30" transform="translate(36.083984 0)"/>
     <use xlink:href="#DejaVuSans-2e" transform="translate(99.707031 0)"/>
     <use xlink:href="#DejaVuSans-30" transform="translate(131.494141 0)"/>
     <use xlink:href="#DejaVuSans-30" transform="translate(195.117188 0)"/>
     <use xlink:href="#DejaVuSans-39" transform="translate(258.740234 0)"/>
     <use xlink:href="#DejaVuSans-20" transform="translate(322.363281 0)"/>
     <use xlink:href="#DejaVuSans-5b" transform="translate(354.150391 0)"/>
     <use xlink:href="#DejaVuSans-2d" transform="translate(393.164062 0)"/>
     <use xlink:href="#DejaVuSans-30" transform="translate(429.248047 0)"/>
     <use xlink:href="#DejaVuSans-2e" transform="translate(492.871094 0)"/>
     <use xlink:href="#DejaVuSans-33" transform="translate(524.658203 0)"/>
     <use xlink:href="#DejaVuSans-38" transform="translate(588.28125 0)"/>
     <use xlink:href="#DejaVuSans-34" transform="translate(651.904297 0)"/>
     <use xlink:href="#DejaVuSans-2c" transform="translate(715.527344 0)"/>
     <use xlink:href="#DejaVuSans-20" transform="translate(747.314453 0)"/>
     <use xlink:href="#DejaVuSans-2b" transform="translate(779.101562 0)"/>
     <use xlink:href="#DejaVuSans-30" transform="translate(862.890625 0)"/>
     <use xlink:href="#DejaVuSans-2e" transform="translate(926.513672 0)"/>
     <use xlink:href="#DejaVuSans-33" transform="translate(958.300781 0)"/>
     <use xlink:href="#DejaVuSans-36" transform="translate(1021.923828 0)"/>
     <use xlink:href="#DejaVuSans-36" transform="translate(1085.546875 0)"/>
     <use xlink:href="#DejaVuSans-5d" transform="translate(1149.169922 0)"/>
    </g>
   </g>
   <g id="text_17">
    <!-- Bayes (HN τ) -->
    <g transform="translate(7.2 217.819881) scale(0.09 -0.09)">
     <defs>
      <path id="DejaVuSans-Bold-42" d="M 2456 2859 
Q 2741 2859 2887 2984 
Q 3034 3109 3034 3353 
Q 3034 3594 2887 3720 
Q 2741 3847 2456 3847 
L 1791 3847 
L 1791 2859 
L 2456 2859 
z
M 2497 819 
Q 2859 819 3042 972 
Q 3225 1125 3225 1434 
Q 3225 1738 3044 1889 
Q 2863 2041 2497 2041 
L 1791 2041 
L 1791 819 
L 2497 819 
z
M 3616 2497 
Q 4003 2384 4215 2081 
Q 4428 1778 4428 1338 
Q 4428 663 3972 331 
Q 3516 0 2584 0 
L 588 0 
L 588 4666 
L 2394 4666 
Q 3366 4666 3802 4372 
Q 4238 4078 4238 3431 
Q 4238 3091 4078 2852 
Q 3919 2613 3616 2497 
z
" transform="scale(0.015625)"/>
      <path id="DejaVuSans-Bold-61" d="M 2106 1575 
Q 1756 1575 1579 1456 
Q 1403 1338 1403 1106 
Q 1403 894 1545 773 
Q 1688 653 1941 653 
Q 2256 653 2472 879 
Q 2688 1106 2688 1447 
L 2688 1575 
L 2106 1575 
z
M 3816 1997 
L 3816 0 
L 2688 0 
L 2688 519 
Q 2463 200 2181 54 
Q 1900 -91 1497 -91 
Q 953 -91 614 226 
Q 275 544 275 1050 
Q 275 1666 698 1953 
Q 1122 2241 2028 2241 
L 2688 2241 
L 2688 2328 
Q 2688 2594 2478 2717 
Q 2269 2841 1825 2841 
Q 1466 2841 1156 2769 
Q 847 2697 581 2553 
L 581 3406 
Q 941 3494 1303 3539 
Q 1666 3584 2028 3584 
Q 2975 3584 3395 3211 
Q 3816 2838 3816 1997 
z
" transform="scale(0.015625)"/>
      <path id="DejaVuSans-Bold-79" d="M 78 3500 
L 1197 3500 
L 2138 1125 
L 2938 3500 
L 4056 3500 
L 2584 -331 
Q 2363 -916 2067 -1148 
Q 1772 -1381 1288 -1381 
L 641 -1381 
L 641 -647 
L 991 -647 
Q 1275 -647 1404 -556 
Q 1534 -466 1606 -231 
L 1638 -134 
L 78 3500 
z
" transform="scale(0.015625)"/>
      <path id="DejaVuSans-Bold-73" d="M 3272 3391 
L 3272 2541 
Q 2913 2691 2578 2766 
Q 2244 2841 1947 2841 
Q 1628 2841 1473 2761 
Q 1319 2681 1319 2516 
Q 1319 2381 1436 2309 
Q 1553 2238 1856 2203 
L 2053 2175 
Q 2913 2066 3209 1816 
Q 3506 1566 3506 1031 
Q 3506 472 3093 190 
Q 2681 -91 1863 -91 
Q 1516 -91 1145 -36 
Q 775 19 384 128 
L 384 978 
Q 719 816 1070 734 
Q 1422 653 1784 653 
Q 2113 653 2278 743 
Q 2444 834 2444 1013 
Q 2444 1163 2330 1236 
Q 2216 1309 1875 1350 
L 1678 1375 
Q 931 1469 631 1722 
Q 331 1975 331 2491 
Q 331 3047 712 3315 
Q 1094 3584 1881 3584 
Q 2191 3584 2531 3537 
Q 2872 3491 3272 3391 
z
" transform="scale(0.015625)"/>
      <path id="DejaVuSans-Bold-4e" d="M 588 4666 
L 1931 4666 
L 3628 1466 
L 3628 4666 
L 4769 4666 
L 4769 0 
L 3425 0 
L 1728 3200 
L 1728 0 
L 588 0 
L 588 4666 
z
" transform="scale(0.015625)"/>
      <path id="DejaVuSans-Bold-3c4" d="M 134 2700 
L 134 3500 
L 3916 3500 
L 3916 2700 
L 2584 2700 
L 2584 1131 
Q 2584 731 2661 631 
Q 2738 531 2913 531 
Q 3091 531 3191 544 
L 3191 -44 
Q 2997 -122 2334 -122 
Q 2125 -122 1922 -63 
Q 1597 34 1506 319 
Q 1466 459 1466 728 
L 1466 2700 
L 134 2700 
z
" transform="scale(0.015625)"/>
     </defs>
     <use xlink:href="#DejaVuSans-Bold-42"/>
     <use xlink:href="#DejaVuSans-Bold-61" transform="translate(76.220703 0)"/>
     <use xlink:href="#DejaVuSans-Bold-79" transform="translate(140.576172 0)"/>
     <use xlink:href="#DejaVuSans-Bold-65" transform="translate(205.761719 0)"/>
     <use xlink:href="#DejaVuSans-Bold-73" transform="translate(273.583984 0)"/>
     <use xlink:href="#DejaVuSans-Bold-20" transform="translate(333.105469 0)"/>
     <use xlink:href="#DejaVuSans-Bold-28" transform="translate(367.919922 0)"/>
     <use xlink:href="#DejaVuSans-Bold-48" transform="translate(413.623047 0)"/>
     <use xlink:href="#DejaVuSans-Bold-4e" transform="translate(497.314453 0)"/>
     <use xlink:href="#DejaVuSans-Bold-20" transform="translate(581.005859 0)"/>
     <use xlink:href="#DejaVuSans-Bold-3c4" transform="translate(615.820312 0)"/>
     <use xlink:href="#DejaVuSans-Bold-29" transform="translate(679.638672 0)"/>
    </g>
   </g>
   <g id="text_18">
    <!-- +0.019 [-0.343, +0.490] -->
    <g transform="translate(876.417297 217.72199) scale(0.085 -0.085)">
     <use xlink:href="#DejaVuSans-2b"/>
     <use xlink:href="#DejaVuSans-30" transform="translate(83.789062 0)"/>
     <use xlink:href="#DejaVuSans-2e" transform="translate(147.412109 0)"/>
     <use xlink:href="#DejaVuSans-30" transform="translate(179.199219 0)"/>
     <use xlink:href="#DejaVuSans-31" transform="translate(242.822266 0)"/>
     <use xlink:href="#DejaVuSans-39" transform="translate(306.445312 0)"/>
     <use xlink:href="#DejaVuSans-20" transform="translate(370.068359 0)"/>
     <use xlink:href="#DejaVuSans-5b" transform="translate(401.855469 0)"/>
     <use xlink:href="#DejaVuSans-2d" transform="translate(440.869141 0)"/>
     <use xlink:href="#DejaVuSans-30" transform="translate(476.953125 0)"/>
     <use xlink:href="#DejaVuSans-2e" transform="translate(540.576172 0)"/>
     <use xlink:href="#DejaVuSans-33" transform="translate(572.363281 0)"/>
     <use xlink:href="#DejaVuSans-34" transform="translate(635.986328 0)"/>
     <use xlink:href="#DejaVuSans-33" transform="translate(699.609375 0)"/>
     <use xlink:href="#DejaVuSans-2c" transform="translate(763.232422 0)"/>
     <use xlink:href="#DejaVuSans-20" transform="translate(795.019531 0)"/>
     <use xlink:href="#DejaVuSans-2b" transform="translate(826.806641 0)"/>
     <use xlink:href="#DejaVuSans-30" transform="translate(910.595703 0)"/>
     <use xlink:href="#DejaVuSans-2e" transform="translate(974.21875 0)"/>
     <use xlink:href="#DejaVuSans-34" transform="translate(1006.005859 0)"/>
     <use xlink:href="#DejaVuSans-39" transform="translate(1069.628906 0)"/>
     <use xlink:href="#DejaVuSans-30" transform="translate(1133.251953 0)"/>
     <use xlink:href="#DejaVuSans-5d" transform="translate(1196.875 0)"/>
    </g>
   </g>
   <g id="text_19">
    <!-- 95% prediction interval -->
    <g transform="translate(7.2 251.72519) scale(0.085 -0.085)">
     <defs>
      <path id="DejaVuSans-Oblique-39" d="M 281 103 
L 397 678 
Q 578 559 809 496 
Q 1041 434 1306 434 
Q 1953 434 2348 843 
Q 2744 1253 2938 2119 
Q 2706 1853 2401 1714 
Q 2097 1575 1747 1575 
Q 1178 1575 842 1904 
Q 506 2234 506 2791 
Q 506 3247 672 3639 
Q 838 4031 1159 4325 
Q 1378 4531 1665 4640 
Q 1953 4750 2278 4750 
Q 2925 4750 3300 4339 
Q 3675 3928 3675 3219 
Q 3675 2559 3501 1943 
Q 3328 1328 3022 878 
Q 2697 403 2240 156 
Q 1784 -91 1228 -91 
Q 988 -91 748 -42 
Q 509 6 281 103 
z
M 1131 2938 
Q 1131 2541 1337 2308 
Q 1544 2075 1894 2075 
Q 2378 2075 2706 2447 
Q 3034 2819 3034 3372 
Q 3034 3784 2831 4017 
Q 2628 4250 2272 4250 
Q 1788 4250 1459 3870 
Q 1131 3491 1131 2938 
z
" transform="scale(0.015625)"/>
      <path id="DejaVuSans-Oblique-35" d="M 3719 4666 
L 3622 4141 
L 1691 4141 
L 1466 2988 
Q 1609 3034 1757 3056 
Q 1906 3078 2059 3078 
Q 2706 3078 3081 2731 
Q 3456 2384 3456 1791 
Q 3456 1375 3264 994 
Q 3072 613 2719 325 
Q 2469 125 2108 17 
Q 1747 -91 1319 -91 
Q 1038 -91 744 -41 
Q 450 9 128 109 
L 244 697 
Q 531 556 820 486 
Q 1109 416 1403 416 
Q 2013 416 2411 781 
Q 2809 1147 2809 1697 
Q 2809 2103 2548 2328 
Q 2288 2553 1819 2553 
Q 1572 2553 1305 2495 
Q 1038 2438 756 2322 
L 1209 4666 
L 3719 4666 
z
" transform="scale(0.015625)"/>
      <path id="DejaVuSans-Oblique-25" d="M 1503 2209 
Q 1078 2209 829 2486 
Q 581 2763 581 3238 
Q 581 3913 943 4331 
Q 1306 4750 1888 4750 
Q 2313 4750 2561 4470 
Q 2809 4191 2809 3713 
Q 2809 3044 2446 2626 
Q 2084 2209 1503 2209 
z
M 2309 3694 
Q 2309 4022 2187 4187 
Q 2066 4353 1825 4353 
Q 1475 4353 1278 4050 
Q 1081 3747 1081 3206 
Q 1081 2919 1207 2762 
Q 1334 2606 1569 2606 
Q 1903 2606 2106 2903 
Q 2309 3200 2309 3694 
z
M 4997 1394 
Q 4997 1728 4878 1893 
Q 4759 2059 4519 2059 
Q 4172 2059 3973 1754 
Q 3775 1450 3775 909 
Q 3775 619 3901 462 
Q 4028 306 4263 306 
Q 4597 306 4797 603 
Q 4997 900 4997 1394 
z
M 4197 -91 
Q 3772 -91 3525 187 
Q 3278 466 3278 941 
Q 3278 1616 3639 2033 
Q 4000 2450 4581 2450 
Q 5006 2450 5251 2175 
Q 5497 1900 5497 1422 
Q 5497 750 5136 329 
Q 4775 -91 4197 -91 
z
M 5259 4750 
L 1403 -91 
L 903 -91 
L 4763 4750 
L 5259 4750 
z
" transform="scale(0.015625)"/>
      <path id="DejaVuSans-Oblique-20" transform="scale(0.015625)"/>
      <path id="DejaVuSans-Oblique-70" d="M 3175 2156 
Q 3175 2616 2975 2859 
Q 2775 3103 2400 3103 
Q 2144 3103 1911 2972 
Q 1678 2841 1497 2591 
Q 1319 2344 1212 1994 
Q 1106 1644 1106 1300 
Q 1106 863 1306 627 
Q 1506 391 1875 391 
Q 2147 391 2380 519 
Q 2613 647 2778 891 
Q 2956 1147 3065 1494 
Q 3175 1841 3175 2156 
z
M 1394 2969 
Q 1625 3272 1939 3428 
Q 2253 3584 2638 3584 
Q 3175 3584 3472 3232 
Q 3769 2881 3769 2247 
Q 3769 1728 3584 1258 
Q 3400 788 3053 416 
Q 2822 169 2531 39 
Q 2241 -91 1919 -91 
Q 1547 -91 1294 64 
Q 1041 219 916 525 
L 556 -1331 
L -19 -1331 
L 922 3500 
L 1497 3500 
L 1394 2969 
z
" transform="scale(0.015625)"/>
      <path id="DejaVuSans-Oblique-72" d="M 2853 2969 
Q 2766 3016 2653 3041 
Q 2541 3066 2413 3066 
Q 1953 3066 1609 2717 
Q 1266 2369 1153 1784 
L 800 0 
L 225 0 
L 909 3500 
L 1484 3500 
L 1375 2956 
Q 1603 3259 1920 3421 
Q 2238 3584 2597 3584 
Q 2691 3584 2781 3573 
Q 2872 3563 2963 3538 
L 2853 2969 
z
" transform="scale(0.015625)"/>
      <path id="DejaVuSans-Oblique-65" d="M 3078 2063 
Q 3088 2113 3092 2166 
Q 3097 2219 3097 2272 
Q 3097 2653 2873 2875 
Q 2650 3097 2266 3097 
Q 1838 3097 1509 2826 
Q 1181 2556 1013 2059 
L 3078 2063 
z
M 3578 1613 
L 903 1613 
Q 884 1494 878 1425 
Q 872 1356 872 1306 
Q 872 872 1139 634 
Q 1406 397 1894 397 
Q 2269 397 2603 481 
Q 2938 566 3225 728 
L 3116 159 
Q 2806 34 2476 -28 
Q 2147 -91 1806 -91 
Q 1078 -91 686 257 
Q 294 606 294 1247 
Q 294 1794 489 2264 
Q 684 2734 1063 3103 
Q 1306 3334 1642 3459 
Q 1978 3584 2356 3584 
Q 2950 3584 3301 3228 
Q 3653 2872 3653 2272 
Q 3653 2128 3634 1964 
Q 3616 1800 3578 1613 
z
" transform="scale(0.015625)"/>
      <path id="DejaVuSans-Oblique-64" d="M 2675 525 
Q 2444 222 2128 65 
Q 1813 -91 1428 -91 
Q 903 -91 598 267 
Q 294 625 294 1247 
Q 294 1766 478 2236 
Q 663 2706 1013 3078 
Q 1244 3325 1534 3454 
Q 1825 3584 2144 3584 
Q 2481 3584 2739 3421 
Q 2997 3259 3138 2956 
L 3513 4863 
L 4091 4863 
L 3144 0 
L 2566 0 
L 2675 525 
z
M 891 1350 
Q 891 897 1095 644 
Q 1300 391 1663 391 
Q 1931 391 2161 520 
Q 2391 650 2566 903 
Q 2750 1166 2856 1509 
Q 2963 1853 2963 2188 
Q 2963 2622 2758 2865 
Q 2553 3109 2194 3109 
Q 1922 3109 1687 2981 
Q 1453 2853 1288 2613 
Q 1106 2353 998 2009 
Q 891 1666 891 1350 
z
" transform="scale(0.015625)"/>
      <path id="DejaVuSans-Oblique-69" d="M 1172 4863 
L 1747 4863 
L 1606 4134 
L 1031 4134 
L 1172 4863 
z
M 909 3500 
L 1484 3500 
L 800 0 
L 225 0 
L 909 3500 
z
" transform="scale(0.015625)"/>
      <path id="DejaVuSans-Oblique-63" d="M 3431 3366 
L 3316 2797 
Q 3109 2947 2876 3022 
Q 2644 3097 2394 3097 
Q 2119 3097 1870 3000 
Q 1622 2903 1453 2725 
Q 1184 2453 1037 2087 
Q 891 1722 891 1331 
Q 891 859 1127 628 
Q 1363 397 1844 397 
Q 2081 397 2348 469 
Q 2616 541 2906 684 
L 2797 116 
Q 2547 13 2283 -39 
Q 2019 -91 1741 -91 
Q 1044 -91 669 257 
Q 294 606 294 1253 
Q 294 1797 489 2255 
Q 684 2713 1069 3078 
Q 1331 3328 1684 3456 
Q 2038 3584 2456 3584 
Q 2700 3584 2940 3529 
Q 3181 3475 3431 3366 
z
" transform="scale(0.015625)"/>
      <path id="DejaVuSans-Oblique-74" d="M 2706 3500 
L 2619 3053 
L 1472 3053 
L 1100 1153 
Q 1081 1047 1072 975 
Q 1063 903 1063 863 
Q 1063 663 1183 572 
Q 1303 481 1569 481 
L 2150 481 
L 2053 0 
L 1503 0 
Q 991 0 739 200 
Q 488 400 488 806 
Q 488 878 497 964 
Q 506 1050 525 1153 
L 897 3053 
L 409 3053 
L 500 3500 
L 978 3500 
L 1172 4494 
L 1747 4494 
L 1556 3500 
L 2706 3500 
z
" transform="scale(0.015625)"/>
      <path id="DejaVuSans-Oblique-6f" d="M 1625 -91 
Q 1009 -91 651 289 
Q 294 669 294 1325 
Q 294 1706 417 2101 
Q 541 2497 738 2766 
Q 1047 3184 1428 3384 
Q 1809 3584 2291 3584 
Q 2888 3584 3255 3212 
Q 3622 2841 3622 2241 
Q 3622 1825 3500 1412 
Q 3378 1000 3181 728 
Q 2875 309 2494 109 
Q 2113 -91 1625 -91 
z
M 891 1344 
Q 891 869 1089 633 
Q 1288 397 1691 397 
Q 2269 397 2648 901 
Q 3028 1406 3028 2181 
Q 3028 2634 2825 2865 
Q 2622 3097 2228 3097 
Q 1903 3097 1650 2945 
Q 1397 2794 1197 2484 
Q 1050 2253 970 1956 
Q 891 1659 891 1344 
z
" transform="scale(0.015625)"/>
      <path id="DejaVuSans-Oblique-6e" d="M 3566 2113 
L 3156 0 
L 2578 0 
L 2988 2091 
Q 3016 2238 3031 2350 
Q 3047 2463 3047 2528 
Q 3047 2791 2881 2937 
Q 2716 3084 2419 3084 
Q 1956 3084 1622 2776 
Q 1288 2469 1184 1941 
L 800 0 
L 225 0 
L 903 3500 
L 1478 3500 
L 1363 2950 
Q 1603 3253 1940 3418 
Q 2278 3584 2650 3584 
Q 3113 3584 3367 3334 
Q 3622 3084 3622 2631 
Q 3622 2519 3608 2391 
Q 3594 2263 3566 2113 
z
" transform="scale(0.015625)"/>
      <path id="DejaVuSans-Oblique-76" d="M 459 3500 
L 1069 3500 
L 1581 525 
L 3256 3500 
L 3866 3500 
L 1875 0 
L 1100 0 
L 459 3500 
z
" transform="scale(0.015625)"/>
      <path id="DejaVuSans-Oblique-61" d="M 3438 1997 
L 3047 0 
L 2472 0 
L 2578 531 
Q 2325 219 2001 64 
Q 1678 -91 1281 -91 
Q 834 -91 548 182 
Q 263 456 263 884 
Q 263 1497 752 1853 
Q 1241 2209 2100 2209 
L 2900 2209 
L 2931 2363 
Q 2938 2388 2941 2417 
Q 2944 2447 2944 2509 
Q 2944 2788 2717 2942 
Q 2491 3097 2081 3097 
Q 1800 3097 1504 3025 
Q 1209 2953 897 2809 
L 997 3341 
Q 1322 3463 1633 3523 
Q 1944 3584 2234 3584 
Q 2853 3584 3176 3315 
Q 3500 3047 3500 2534 
Q 3500 2431 3484 2292 
Q 3469 2153 3438 1997 
z
M 2816 1759 
L 2241 1759 
Q 1534 1759 1195 1570 
Q 856 1381 856 984 
Q 856 709 1029 553 
Q 1203 397 1509 397 
Q 1978 397 2328 733 
Q 2678 1069 2791 1631 
L 2816 1759 
z
" transform="scale(0.015625)"/>
      <path id="DejaVuSans-Oblique-6c" d="M 1172 4863 
L 1747 4863 
L 800 0 
L 225 0 
L 1172 4863 
z
" transform="scale(0.015625)"/>
     </defs>
     <use xlink:href="#DejaVuSans-Oblique-39"/>
     <use xlink:href="#DejaVuSans-Oblique-35" transform="translate(63.623047 0)"/>
     <use xlink:href="#DejaVuSans-Oblique-25" transform="translate(127.246094 0)"/>
     <use xlink:href="#DejaVuSans-Oblique-20" transform="translate(222.265625 0)"/>
     <use xlink:href="#DejaVuSans-Oblique-70" transform="translate(254.052734 0)"/>
     <use xlink:href="#DejaVuSans-Oblique-72" transform="translate(317.529297 0)"/>
     <use xlink:href="#DejaVuSans-Oblique-65" transform="translate(358.642578 0)"/>
     <use xlink:href="#DejaVuSans-Oblique-64" transform="translate(420.166016 0)"/>
     <use xlink:href="#DejaVuSans-Oblique-69" transform="translate(483.642578 0)"/>
     <use xlink:href="#DejaVuSans-Oblique-63" transform="translate(511.425781 0)"/>
     <use xlink:href="#DejaVuSans-Oblique-74" transform="translate(566.40625 0)"/>
     <use xlink:href="#DejaVuSans-Oblique-69" transform="translate(605.615234 0)"/>
     <use xlink:href="#DejaVuSans-Oblique-6f" transform="translate(633.398438 0)"/>
     <use xlink:href="#DejaVuSans-Oblique-6e" transform="translate(694.580078 0)"/>
     <use xlink:href="#DejaVuSans-Oblique-20" transform="translate(757.958984 0)"/>
     <use xlink:href="#DejaVuSans-Oblique-69" transform="translate(789.746094 0)"/>
     <use xlink:href="#DejaVuSans-Oblique-6e" transform="translate(817.529297 0)"/>
     <use xlink:href="#DejaVuSans-Oblique-74" transform="translate(880.908203 0)"/>
     <use xlink:href="#DejaVuSans-Oblique-65" transform="translate(920.117188 0)"/>
     <use xlink:href="#DejaVuSans-Oblique-72" transform="translate(981.640625 0)"/>
     <use xlink:href="#DejaVuSans-Oblique-76" transform="translate(1022.753906 0)"/>
     <use xlink:href="#DejaVuSans-Oblique-61" transform="translate(1081.933594 0)"/>
     <use xlink:href="#DejaVuSans-Oblique-6c" transform="translate(1143.212891 0)"/>
    </g>
   </g>
   <g id="text_20">
    <!-- [-1.179, +1.161] -->
    <g transform="translate(914.7455 251.587221) scale(0.08 -0.08)">
     <defs>
      <path id="DejaVuSans-37" d="M 525 4666 
L 3525 4666 
L 3525 4397 
L 1831 0 
L 1172 0 
L 2766 4134 
L 525 4134 
L 525 4666 
z
" transform="scale(0.015625)"/>
     </defs>
     <use xlink:href="#DejaVuSans-5b"/>
     <use xlink:href="#DejaVuSans-2d" transform="translate(39.013672 0)"/>
     <use xlink:href="#DejaVuSans-31" transform="translate(75.097656 0)"/>
     <use xlink:href="#DejaVuSans-2e" transform="translate(138.720703 0)"/>
     <use xlink:href="#DejaVuSans-31" transform="translate(170.507812 0)"/>
     <use xlink:href="#DejaVuSans-37" transform="translate(234.130859 0)"/>
     <use xlink:href="#DejaVuSans-39" transform="translate(297.753906 0)"/>
     <use xlink:href="#DejaVuSans-2c" transform="translate(361.376953 0)"/>
     <use xlink:href="#DejaVuSans-20" transform="translate(393.164062 0)"/>
     <use xlink:href="#DejaVuSans-2b" transform="translate(424.951172 0)"/>
     <use xlink:href="#DejaVuSans-31" transform="translate(508.740234 0)"/>
     <use xlink:href="#DejaVuSans-2e" transform="translate(572.363281 0)"/>
     <use xlink:href="#DejaVuSans-31" transform="translate(604.150391 0)"/>
     <use xlink:href="#DejaVuSans-36" transform="translate(667.773438 0)"/>
     <use xlink:href="#DejaVuSans-31" transform="translate(731.396484 0)"/>
     <use xlink:href="#DejaVuSans-5d" transform="translate(795.019531 0)"/>
    </g>
   </g>
   <g id="text_21">
    <!-- Figure 3. Forest plot — DunedinPACE (k=3); I²=79.0%, τ²=0.0057, Q p=0.009 -->
    <g transform="translate(521.527656 15.558281) scale(0.11 -0.11)">
     <defs>
      <path id="DejaVuSans-46" d="M 628 4666 
L 3309 4666 
L 3309 4134 
L 1259 4134 
L 1259 2759 
L 3109 2759 
L 3109 2228 
L 1259 2228 
L 1259 0 
L 628 0 
L 628 4666 
z
" transform="scale(0.015625)"/>
      <path id="DejaVuSans-67" d="M 2906 1791 
Q 2906 2416 2648 2759 
Q 2391 3103 1925 3103 
Q 1463 3103 1205 2759 
Q 947 2416 947 1791 
Q 947 1169 1205 825 
Q 1463 481 1925 481 
Q 2391 481 2648 825 
Q 2906 1169 2906 1791 
z
M 3481 434 
Q 3481 -459 3084 -895 
Q 2688 -1331 1869 -1331 
Q 1566 -1331 1297 -1286 
Q 1028 -1241 775 -1147 
L 775 -588 
Q 1028 -725 1275 -790 
Q 1522 -856 1778 -856 
Q 2344 -856 2625 -561 
Q 2906 -266 2906 331 
L 2906 616 
Q 2728 306 2450 153 
Q 2172 0 1784 0 
Q 1141 0 747 490 
Q 353 981 353 1791 
Q 353 2603 747 3093 
Q 1141 3584 1784 3584 
Q 2172 3584 2450 3431 
Q 2728 3278 2906 2969 
L 2906 3500 
L 3481 3500 
L 3481 434 
z
" transform="scale(0.015625)"/>
      <path id="DejaVuSans-73" d="M 2834 3397 
L 2834 2853 
Q 2591 2978 2328 3040 
Q 2066 3103 1784 3103 
Q 1356 3103 1142 2972 
Q 928 2841 928 2578 
Q 928 2378 1081 2264 
Q 1234 2150 1697 2047 
L 1894 2003 
Q 2506 1872 2764 1633 
Q 3022 1394 3022 966 
Q 3022 478 2636 193 
Q 2250 -91 1575 -91 
Q 1294 -91 989 -36 
Q 684 19 347 128 
L 347 722 
Q 666 556 975 473 
Q 1284 391 1588 391 
Q 1994 391 2212 530 
Q 2431 669 2431 922 
Q 2431 1156 2273 1281 
Q 2116 1406 1581 1522 
L 1381 1569 
Q 847 1681 609 1914 
Q 372 2147 372 2553 
Q 372 3047 722 3315 
Q 1072 3584 1716 3584 
Q 2034 3584 2315 3537 
Q 2597 3491 2834 3397 
z
" transform="scale(0.015625)"/>
      <path id="DejaVuSans-2014" d="M 313 1978 
L 6088 1978 
L 6088 1528 
L 313 1528 
L 313 1978 
z
" transform="scale(0.015625)"/>
      <path id="DejaVuSans-3d" d="M 678 2906 
L 4684 2906 
L 4684 2381 
L 678 2381 
L 678 2906 
z
M 678 1631 
L 4684 1631 
L 4684 1100 
L 678 1100 
L 678 1631 
z
" transform="scale(0.015625)"/>
      <path id="DejaVuSans-3b" d="M 750 3309 
L 1409 3309 
L 1409 2516 
L 750 2516 
L 750 3309 
z
M 750 794 
L 1409 794 
L 1409 256 
L 897 -744 
L 494 -744 
L 750 256 
L 750 794 
z
" transform="scale(0.015625)"/>
      <path id="DejaVuSans-49" d="M 628 4666 
L 1259 4666 
L 1259 0 
L 628 0 
L 628 4666 
z
" transform="scale(0.015625)"/>
      <path id="DejaVuSans-b2" d="M 838 2444 
L 2163 2444 
L 2163 2088 
L 294 2088 
L 294 2431 
Q 400 2528 597 2703 
Q 1672 3656 1672 3950 
Q 1672 4156 1509 4282 
Q 1347 4409 1081 4409 
Q 919 4409 728 4354 
Q 538 4300 313 4191 
L 313 4575 
Q 553 4663 761 4706 
Q 969 4750 1147 4750 
Q 1600 4750 1872 4544 
Q 2144 4338 2144 4000 
Q 2144 3566 1109 2678 
Q 934 2528 838 2444 
z
" transform="scale(0.015625)"/>
      <path id="DejaVuSans-25" d="M 4653 2053 
Q 4381 2053 4226 1822 
Q 4072 1591 4072 1178 
Q 4072 772 4226 539 
Q 4381 306 4653 306 
Q 4919 306 5073 539 
Q 5228 772 5228 1178 
Q 5228 1588 5073 1820 
Q 4919 2053 4653 2053 
z
M 4653 2450 
Q 5147 2450 5437 2106 
Q 5728 1763 5728 1178 
Q 5728 594 5436 251 
Q 5144 -91 4653 -91 
Q 4153 -91 3862 251 
Q 3572 594 3572 1178 
Q 3572 1766 3864 2108 
Q 4156 2450 4653 2450 
z
M 1428 4353 
Q 1159 4353 1004 4120 
Q 850 3888 850 3481 
Q 850 3069 1003 2837 
Q 1156 2606 1428 2606 
Q 1700 2606 1854 2837 
Q 2009 3069 2009 3481 
Q 2009 3884 1853 4118 
Q 1697 4353 1428 4353 
z
M 4250 4750 
L 4750 4750 
L 1831 -91 
L 1331 -91 
L 4250 4750 
z
M 1428 4750 
Q 1922 4750 2215 4408 
Q 2509 4066 2509 3481 
Q 2509 2891 2217 2550 
Q 1925 2209 1428 2209 
Q 931 2209 642 2551 
Q 353 2894 353 3481 
Q 353 4063 643 4406 
Q 934 4750 1428 4750 
z
" transform="scale(0.015625)"/>
      <path id="DejaVuSans-3c4" d="M 2319 638 
Q 2431 488 2769 488 
L 3047 488 
L 3047 0 
L 2700 0 
Q 2138 0 1881 300 
Q 1625 606 1625 1269 
L 1625 2925 
L 313 2925 
L 313 3500 
L 3541 3500 
L 3541 2925 
L 2213 2925 
L 2213 1234 
Q 2213 781 2319 638 
z
" transform="scale(0.015625)"/>
      <path id="DejaVuSans-51" d="M 2522 4238 
Q 1834 4238 1429 3725 
Q 1025 3213 1025 2328 
Q 1025 1447 1429 934 
Q 1834 422 2522 422 
Q 3209 422 3611 934 
Q 4013 1447 4013 2328 
Q 4013 3213 3611 3725 
Q 3209 4238 2522 4238 
z
M 3406 84 
L 4238 -825 
L 3475 -825 
L 2784 -78 
Q 2681 -84 2626 -87 
Q 2572 -91 2522 -91 
Q 1538 -91 948 567 
Q 359 1225 359 2328 
Q 359 3434 948 4092 
Q 1538 4750 2522 4750 
Q 3503 4750 4090 4092 
Q 4678 3434 4678 2328 
Q 4678 1516 4351 937 
Q 4025 359 3406 84 
z
" transform="scale(0.015625)"/>
     </defs>
     <use xlink:href="#DejaVuSans-46"/>
     <use xlink:href="#DejaVuSans-69" transform="translate(50.269531 0)"/>
     <use xlink:href="#DejaVuSans-67" transform="translate(78.052734 0)"/>
     <use xlink:href="#DejaVuSans-75" transform="translate(141.529297 0)"/>
     <use xlink:href="#DejaVuSans-72" transform="translate(204.908203 0)"/>
     <use xlink:href="#DejaVuSans-65" transform="translate(243.771484 0)"/>
     <use xlink:href="#DejaVuSans-20" transform="translate(305.294922 0)"/>
     <use xlink:href="#DejaVuSans-33" transform="translate(337.082031 0)"/>
     <use xlink:href="#DejaVuSans-2e" transform="translate(400.705078 0)"/>
     <use xlink:href="#DejaVuSans-20" transform="translate(432.492188 0)"/>
     <use xlink:href="#DejaVuSans-46" transform="translate(464.279297 0)"/>
     <use xlink:href="#DejaVuSans-6f" transform="translate(518.173828 0)"/>
     <use xlink:href="#DejaVuSans-72" transform="translate(579.355469 0)"/>
     <use xlink:href="#DejaVuSans-65" transform="translate(618.21875 0)"/>
     <use xlink:href="#DejaVuSans-73" transform="translate(679.742188 0)"/>
     <use xlink:href="#DejaVuSans-74" transform="translate(731.841797 0)"/>
     <use xlink:href="#DejaVuSans-20" transform="translate(771.050781 0)"/>
     <use xlink:href="#DejaVuSans-70" transform="translate(802.837891 0)"/>
     <use xlink:href="#DejaVuSans-6c" transform="translate(866.314453 0)"/>
     <use xlink:href="#DejaVuSans-6f" transform="translate(894.097656 0)"/>
     <use xlink:href="#DejaVuSans-74" transform="translate(955.279297 0)"/>
     <use xlink:href="#DejaVuSans-20" transform="translate(994.488281 0)"/>
     <use xlink:href="#DejaVuSans-2014" transform="translate(1026.275391 0)"/>
     <use xlink:href="#DejaVuSans-20" transform="translate(1126.275391 0)"/>
     <use xlink:href="#DejaVuSans-44" transform="translate(1158.0625 0)"/>
     <use xlink:href="#DejaVuSans-75" transform="translate(1235.064453 0)"/>
     <use xlink:href="#DejaVuSans-6e" transform="translate(1298.443359 0)"/>
     <use xlink:href="#DejaVuSans-65" transform="translate(1361.822266 0)"/>
     <use xlink:href="#DejaVuSans-64" transform="translate(1423.345703 0)"/>
     <use xlink:href="#DejaVuSans-69" transform="translate(1486.822266 0)"/>
     <use xlink:href="#DejaVuSans-6e" transform="translate(1514.605469 0)"/>
     <use xlink:href="#DejaVuSans-50" transform="translate(1577.984375 0)"/>
     <use xlink:href="#DejaVuSans-41" transform="translate(1631.912109 0)"/>
     <use xlink:href="#DejaVuSans-43" transform="translate(1698.570312 0)"/>
     <use xlink:href="#DejaVuSans-45" transform="translate(1768.394531 0)"/>
     <use xlink:href="#DejaVuSans-20" transform="translate(1831.578125 0)"/>
     <use xlink:href="#DejaVuSans-28" transform="translate(1863.365234 0)"/>
     <use xlink:href="#DejaVuSans-6b" transform="translate(1902.378906 0)"/>
     <use xlink:href="#DejaVuSans-3d" transform="translate(1960.289062 0)"/>
     <use xlink:href="#DejaVuSans-33" transform="translate(2044.078125 0)"/>
     <use xlink:href="#DejaVuSans-29" transform="translate(2107.701172 0)"/>
     <use xlink:href="#DejaVuSans-3b" transform="translate(2146.714844 0)"/>
     <use xlink:href="#DejaVuSans-20" transform="translate(2180.40625 0)"/>
     <use xlink:href="#DejaVuSans-49" transform="translate(2212.193359 0)"/>
     <use xlink:href="#DejaVuSans-b2" transform="translate(2241.685547 0)"/>
     <use xlink:href="#DejaVuSans-3d" transform="translate(2281.773438 0)"/>
     <use xlink:href="#DejaVuSans-37" transform="translate(2365.5625 0)"/>
     <use xlink:href="#DejaVuSans-39" transform="translate(2429.185547 0)"/>
     <use xlink:href="#DejaVuSans-2e" transform="translate(2492.808594 0)"/>
     <use xlink:href="#DejaVuSans-30" transform="translate(2524.595703 0)"/>
     <use xlink:href="#DejaVuSans-25" transform="translate(2588.21875 0)"/>
     <use xlink:href="#DejaVuSans-2c" transform="translate(2683.238281 0)"/>
     <use xlink:href="#DejaVuSans-20" transform="translate(2715.025391 0)"/>
     <use xlink:href="#DejaVuSans-3c4" transform="translate(2746.8125 0)"/>
     <use xlink:href="#DejaVuSans-b2" transform="translate(2807.017578 0)"/>
     <use xlink:href="#DejaVuSans-3d" transform="translate(2847.105469 0)"/>
     <use xlink:href="#DejaVuSans-30" transform="translate(2930.894531 0)"/>
     <use xlink:href="#DejaVuSans-2e" transform="translate(2994.517578 0)"/>
     <use xlink:href="#DejaVuSans-30" transform="translate(3026.304688 0)"/>
     <use xlink:href="#DejaVuSans-30" transform="translate(3089.927734 0)"/>
     <use xlink:href="#DejaVuSans-35" transform="translate(3153.550781 0)"/>
     <use xlink:href="#DejaVuSans-37" transform="translate(3217.173828 0)"/>
     <use xlink:href="#DejaVuSans-2c" transform="translate(3280.796875 0)"/>
     <use xlink:href="#DejaVuSans-20" transform="translate(3312.583984 0)"/>
     <use xlink:href="#DejaVuSans-51" transform="translate(3344.371094 0)"/>
     <use xlink:href="#DejaVuSans-20" transform="translate(3423.082031 0)"/>
     <use xlink:href="#DejaVuSans-70" transform="translate(3454.869141 0)"/>
     <use xlink:href="#DejaVuSans-3d" transform="translate(3518.345703 0)"/>
     <use xlink:href="#DejaVuSans-30" transform="translate(3602.134766 0)"/>
     <use xlink:href="#DejaVuSans-2e" transform="translate(3665.757812 0)"/>
     <use xlink:href="#DejaVuSans-30" transform="translate(3697.544922 0)"/>
     <use xlink:href="#DejaVuSans-30" transform="translate(3761.167969 0)"/>
     <use xlink:href="#DejaVuSans-39" transform="translate(3824.791016 0)"/>
    </g>
   </g>
  </g>
 </g>
 <defs>
  <clipPath id="p9aefe49a04">
   <rect x="484.29" y="21.558281" width="502.2" height="255.024"/>
  </clipPath>
 </defs>
</svg>
